<?xml version="1.0" encoding="utf-8"?>
<!-- Generator: Adobe Illustrator 26.3.1, SVG Export Plug-In . SVG Version: 6.00 Build 0)  -->
<svg version="1.1" id="Layer_1" xmlns="http://www.w3.org/2000/svg" xmlns:xlink="http://www.w3.org/1999/xlink" x="0px" y="0px"
	 viewBox="0 0 450 450" style="enable-background:new 0 0 450 450;" xml:space="preserve">
<style type="text/css">
	.st0{fill-rule:evenodd;clip-rule:evenodd;fill:#FEFEFE;}
	.st1{fill:none;stroke:#000000;stroke-width:2.83;stroke-linecap:round;stroke-linejoin:round;}
	.st2{fill-rule:evenodd;clip-rule:evenodd;fill:#D6A87E;}
	.st3{fill-rule:evenodd;clip-rule:evenodd;fill:#D175BF;}
	.st4{fill-rule:evenodd;clip-rule:evenodd;fill:#FFFF66;}
	.st5{fill-rule:evenodd;clip-rule:evenodd;}
	.st6{fill:none;stroke:#000000;stroke-width:3.4;stroke-linecap:round;stroke-linejoin:round;}
	.st7{fill-rule:evenodd;clip-rule:evenodd;fill:#FFFFFF;}
	.st8{fill:none;stroke:#FFFFFF;stroke-width:2.83;stroke-linecap:round;stroke-linejoin:round;}
</style>
<path class="st0" d="M157.5,109.5c2.3,2.9,1.9,3.4,7.1,3.9c10.2,0.9,6.4,11.2,13.4,8c0,0,0.5,4.3-0.7,5.3c-0.8,0.7-2.3,0.9-4.8,0.2
	c-6.5-2-1.8-10.3-13.2-8.4c-3.1,0.5-8.1-4-4.7-6C155,112.2,157.4,109.5,157.5,109.5z"/>
<path class="st1" d="M157.5,109.5c2.3,2.9,1.9,3.4,7.1,3.9c10.2,0.9,6.4,11.2,13.4,8c0,0,0.5,4.3-0.7,5.3c-0.8,0.7-2.3,0.9-4.8,0.2
	c-6.5-2-1.8-10.3-13.2-8.4c-3.1,0.5-8.1-4-4.7-6C155,112.2,157.4,109.5,157.5,109.5z"/>
<path class="st0" d="M106.7,60.5c10.8,8.7,12-10.2,21.7-11.5c2-0.3-2-5-2-5c-7,0-12.2,12-14.2,12.1s-2.8-1.1-3.5-0.9
	C108.2,55.3,107.8,57.7,106.7,60.5z"/>
<path class="st1" d="M106.7,60.5c10.8,8.7,12-10.2,21.7-11.5c2-0.3-2-5-2-5c-7,0-12.2,12-14.2,12.1s-2.8-1.1-3.5-0.9
	C108.2,55.3,107.8,57.7,106.7,60.5z"/>
<path class="st0" d="M332,81.2c4.2,3.6,5.7,10.2,5.7,15.4c0,3.8-2.5,1.8-4.9,3.5c-0.4,0.3,0.4-6.6-1.8-9.5
	C327,85.4,329.5,87.9,332,81.2z"/>
<path class="st1" d="M332,81.2c4.2,3.6,5.7,10.2,5.7,15.4c0,3.8-2.5,1.8-4.9,3.5c-0.4,0.3,0.4-6.6-1.8-9.5
	C327,85.4,329.5,87.9,332,81.2z"/>
<path class="st0" d="M135.9,168.5c-8.4,1.8-4.4,13.3-16.9,17.3c-2,0.6-1.1,0.2,0.7,3.7c1.3,2.4,2.7,1.8,5.5,0.6
	c7.1-3.1,7-10.8,13.4-15.9C138.8,174,136.2,168.5,135.9,168.5z"/>
<path class="st1" d="M135.9,168.5c-8.4,1.8-4.4,13.3-16.9,17.3c-2,0.6-1.1,0.2,0.7,3.7c1.3,2.4,2.7,1.8,5.5,0.6
	c7.1-3.1,7-10.8,13.4-15.9C138.8,174,136.2,168.5,135.9,168.5z"/>
<path class="st0" d="M289.3,196.5c9.4-1.9,8.1-1.4,14-7c0.3-0.3,1.2-1.8,1.5-1.8c-0.4-0.6-4.3-4.5-4.9-3.8c-1.5,1.8-2.1,4.5-4.9,7.3
	C294,192,290.3,196.3,289.3,196.5z"/>
<path class="st1" d="M289.3,196.5c9.4-1.9,8.1-1.4,14-7c0.3-0.3,1.2-1.8,1.5-1.8c-0.4-0.6-4.3-4.5-4.9-3.8c-1.5,1.8-2.1,4.5-4.9,7.3
	C294,192,290.3,196.3,289.3,196.5z"/>
<path class="st2" d="M119.4,49.4c0-16.3,11.4-20.9-4.5-26.4c-1.8-4.6-2.7-7.2-6.2-8.2c-3-0.9-7.3-0.7-9.2,5
	c-3.1-1.3-6.8,0.5-6.4,6.2c0.1,1.5-3.7-1.2-4.4,6.7c-1.8,1.9-2.8,4.4-2.6,7c0.3,4.1,3.3,7.5,7.3,8.3c1.3,1.7,2.5,5.7,3.7,11.3
	c4.7,22.4,8.9,72.8,16.5,87.2c2.7,5.1,39,67.4,39.6,69.4c5,16,3.6,38.6,5.5,36.8c5-4.9,23-53.7,17.4-56.9c-9.9-6.2-4-10.2-14.7-27.3
	c-5.4-8.7-20.5-31.9-22.4-40.4c-5.5-23.8-12.9-42.8-18.5-66.8C120.2,60.6,119.4,49.7,119.4,49.4z"/>
<path class="st1" d="M119.4,49.4c0-16.3,11.4-20.9-4.5-26.4c-1.8-4.6-2.7-7.2-6.2-8.2c-3-0.9-7.3-0.7-9.2,5
	c-3.1-1.3-6.8,0.5-6.4,6.2c0.1,1.5-3.7-1.2-4.4,6.7c-1.8,1.9-2.8,4.4-2.6,7c0.3,4.1,3.3,7.5,7.3,8.3c1.3,1.7,2.5,5.7,3.7,11.3
	c4.7,22.4,8.9,72.8,16.5,87.2c2.7,5.1,39,67.4,39.6,69.4c5,16,3.6,38.6,5.5,36.8c5-4.9,23-53.7,17.4-56.9c-9.9-6.2-4-10.2-14.7-27.3
	c-5.4-8.7-20.5-31.9-22.4-40.4c-5.5-23.8-12.9-42.8-18.5-66.8C120.2,60.6,119.4,49.7,119.4,49.4z"/>
<path class="st3" d="M168.5,423.3c-5.1-6.7-5.9-30.5-1.9-38.6c1.1-2.2,2.8-12.9,6-11.8c7.7,2.7,21.1,6.3,29,6.8
	c8.5,0.5,11.4,1,20.5,0.6c6.2-0.3,29-5.5,34.5-8.4c5.1-2.7,10.1-6.8,14.9-11.2c6.3-5.7,16.5,48.5,16.4,53.6
	c-0.2,13.6,0.2,18.5-26.7,21.6c-24.4,2.8-40.2,0-58.6-3.9c-3.3-0.7-0.1-3.9-4.9-3.9c-4.5,0-25.9-1.5-26.9-3.1
	C170.5,424.2,168.8,423.5,168.5,423.3"/>
<path class="st4" d="M284.6,279.4c-0.1,0.4-0.3,0.8-0.4,1.2c-0.4,1.3-2.3,18.4-1.4,20.1c3.9,7.3,8.8,3.6,8.9,15.5
	c0,2,2.1-0.4,2.9-1.5c1.6-2,2.2-13.4,1.3-16.5C295,294.9,284.8,278.6,284.6,279.4z"/>
<path class="st1" d="M284.6,279.4c-0.1,0.4-0.3,0.8-0.4,1.2c-0.4,1.3-2.3,18.4-1.4,20.1c3.9,7.3,8.8,3.6,8.9,15.5
	c0,2,2.1-0.4,2.9-1.5c1.6-2,2.2-13.4,1.3-16.5C295,294.9,284.8,278.6,284.6,279.4z"/>
<path class="st4" d="M147.7,315.6c-0.7-13.6,20.1-17.8,16.3-28.8c-2.6-7.2-27.2-4.7-18.7,25.1C145.6,313.1,147.7,315.5,147.7,315.6z
	"/>
<path class="st1" d="M147.7,315.6c-0.7-13.6,20.1-17.8,16.3-28.8c-2.6-7.2-27.2-4.7-18.7,25.1C145.6,313.1,147.7,315.5,147.7,315.6z
	"/>
<path class="st4" d="M143.7,296.7c0,0.1,0.1,17.4,1.8,23.4c2.1,7.4,21.6,8.4,23.6,11c2.4,3.2-0.9-5.6-0.4-10.1
	c0.5-4.7,0.4-6.3-5.7-7.2c-6-0.9-16.1-1.6-18.1-8.3C144.3,302.5,143.9,299.6,143.7,296.7z"/>
<path class="st1" d="M143.7,296.7c0,0.1,0.1,17.4,1.8,23.4c2.1,7.4,21.6,8.4,23.6,11c2.4,3.2-0.9-5.6-0.4-10.1
	c0.5-4.7,0.4-6.3-5.7-7.2c-6-0.9-16.1-1.6-18.1-8.3C144.3,302.5,143.9,299.6,143.7,296.7z"/>
<path class="st5" d="M213.2,126.5c-3.8-3.1-6.6,1.4-7.9,0.2s-3.1-2.2-6.1-1.2c-3.6,1.2-1.6,4.4-5.4,2.3c-3.1-1.7-7.1,0.4-7.9,4.7
	c-1.5-0.1-6.6-2.9-8.2,3.6c-0.7,3,1.2,0-2.9,2.2c-6.7,3.7-1,10.5-3.5,10.2c-5.4-0.6-9.2,6.1-5.4,9.6c-0.7,1.4-8.2,1-4.5,10.3
	c0.1,0.2-8.3,2.1-3.7,9.6c0.4,0.7-5.4,6.9,0.5,10.8c0.9,0.6-0.2,6.5,7.6,6.3c11.3-0.2,20.2,4.4,26.4-6.3
	c13.2-22.8,6.6-30.6,15.8-46.9c0.8-1.4,8.3-8.5,6.2-9.5C213.9,132.2,215.1,127.9,213.2,126.5z"/>
<path class="st1" d="M213.2,126.5c-3.8-3.1-6.6,1.4-7.9,0.2s-3.1-2.2-6.1-1.2c-3.6,1.2-1.6,4.4-5.4,2.3c-3.1-1.7-7.1,0.4-7.9,4.7
	c-1.5-0.1-6.6-2.9-8.2,3.6c-0.7,3,1.2,0-2.9,2.2c-6.7,3.7-1,10.5-3.5,10.2c-5.4-0.6-9.2,6.1-5.4,9.6c-0.7,1.4-8.2,1-4.5,10.3
	c0.1,0.2-8.3,2.1-3.7,9.6c0.4,0.7-5.4,6.9,0.5,10.8c0.9,0.6-0.2,6.5,7.6,6.3c11.3-0.2,20.2,4.4,26.4-6.3
	c13.2-22.8,6.6-30.6,15.8-46.9c0.8-1.4,8.3-8.5,6.2-9.5C213.9,132.2,215.1,127.9,213.2,126.5z"/>
<path class="st5" d="M199.9,87.5c5.3-3.8,8.5,2.6,10.4,1.2s4.4-2.5,8.2-0.8c4.7,2,1.5,6,6.8,3.8c4.3-1.9,9.3,1.4,9.9,7.1
	c2,0.1,9.1-1.7,10.4,7.1c0.6,4-1.6-0.2,3.6,3.3c8.4,5.7,0,13,3.4,12.6c7.1-0.8,11.4,9.1,6,13.3c0.7,2,10.3,4.8,4.4,16.6
	c-0.2,0.3,9.6,5.1,4.1,11.2c-0.8,0.8,9.7,2.8,1.7,12.2c-3.9,4.7-4.4,18.4-11.8,18.4c-15,0-29.8-6.3-36.7-21.3
	c-14.7-31.7-5.1-41.2-15.3-63.8c-0.9-2-10-12.2-7-13.2C198.3,95,197.1,89.5,199.9,87.5z"/>
<path class="st1" d="M199.9,87.5c5.3-3.8,8.5,2.6,10.4,1.2s4.4-2.5,8.2-0.8c4.7,2,1.5,6,6.8,3.8c4.3-1.9,9.3,1.4,9.9,7.1
	c2,0.1,9.1-1.7,10.4,7.1c0.6,4-1.6-0.2,3.6,3.3c8.4,5.7,0,13,3.4,12.6c7.1-0.8,11.4,9.1,6,13.3c0.7,2,10.3,4.8,4.4,16.6
	c-0.2,0.3,9.6,5.1,4.1,11.2c-0.8,0.8,9.7,2.8,1.7,12.2c-3.9,4.7-4.4,18.4-11.8,18.4c-15,0-29.8-6.3-36.7-21.3
	c-14.7-31.7-5.1-41.2-15.3-63.8c-0.9-2-10-12.2-7-13.2C198.3,95,197.1,89.5,199.9,87.5z"/>
<path class="st5" d="M196.2,91.9c-9.7-3.1-10.1,6.1-10.2,6.1c-4.2-0.2-9.7,1.8-9.3,7.4c0,0.5-5.5,1-5.2,6.1c0.2,3.4,1.3,2.9-1.8,5.9
	c-1.9,1.8-1.5,6,0.1,8.3c-0.2,0.3-6,4.2-0.7,10.2c4.2,4.8,4.8,0.9,12.9,0.2c9.3-0.8,20.4-24.3,20-32.4c-0.1-2,1.6-5.2-2.6-6.1
	C199.1,97.2,200.3,93.3,196.2,91.9z"/>
<path class="st1" d="M196.2,91.9c-9.7-3.1-10.1,6.1-10.2,6.1c-4.2-0.2-9.7,1.8-9.3,7.4c0,0.5-5.5,1-5.2,6.1c0.2,3.4,1.3,2.9-1.8,5.9
	c-1.9,1.8-1.5,6,0.1,8.3c-0.2,0.3-6,4.2-0.7,10.2c4.2,4.8,4.8,0.9,12.9,0.2c9.3-0.8,20.4-24.3,20-32.4c-0.1-2,1.6-5.2-2.6-6.1
	C199.1,97.2,200.3,93.3,196.2,91.9z"/>
<path class="st2" d="M170.4,371.2c5.5,3.3,14.2,6.5,33.1,8c16.4,1.3,39.2,1.1,55.2-9.1c4.6-2.9,13.5-8.4,13-10.6
	c-4.5-19.1-14.1-14.9-12.8-47.3c0.2-5.2-51.8,4-60.9,4c-5.8,0-23.2,0-28.1-0.6l-1.2,3.5c-1.3,6.7,2,15.3,4,25.4
	c1.1,5.6,1.7,6.7,0.3,12.1C171.9,361.5,170.6,366.1,170.4,371.2z"/>
<path class="st1" d="M170.4,371.2c5.5,3.3,14.2,6.5,33.1,8c16.4,1.3,39.2,1.1,55.2-9.1c4.6-2.9,13.5-8.4,13-10.6
	c-4.5-19.1-14.1-14.9-12.8-47.3c0.2-5.2-51.8,4-60.9,4c-5.8,0-23.2,0-28.1-0.6l-1.2,3.5c-1.3,6.7,2,15.3,4,25.4
	c1.1,5.6,1.7,6.7,0.3,12.1C171.9,361.5,170.6,366.1,170.4,371.2z"/>
<path class="st2" d="M217.6,168.9c-0.4-6,0.7-20.4,2.6-19.2c6.5,4.1,14.8-8.8,7.8-12.9c-4.2-2.5-7.5,3.8-3.9-4.9
	c13-31.1-31.8-41.8-41.2-13.6c-2.9,8.8-1.9,6-8.7,13.8s-9,19.9-5.2,28.9c3.4,8.1,8,10.5,16.5,13.5c0.6,1.7,0,16.5-1.7,16.8
	c-1.6,0.7-3.4,1.1-5.1,1.2c-7.1-0.3-10.9,19.1-10.9,24.5c0,11,6.6,17.8,14.8,24.5c14.3,11.5,41.8,2.9,49.5-15.3
	c4.6-10.8,5.7-17.2,9.2-27.2c0.3-0.9,3-6.7,3.6-7.2l-1.3-0.6c-5.2-0.5-15.1-4.3-20.8-3.8C220,187.5,218.5,171.4,217.6,168.9z"/>
<path class="st1" d="M217.6,168.9c-0.4-6,0.7-20.4,2.6-19.2c6.5,4.1,14.8-8.8,7.8-12.9c-4.2-2.5-7.5,3.8-3.9-4.9
	c13-31.1-31.8-41.8-41.2-13.6c-2.9,8.8-1.9,6-8.7,13.8s-9,19.9-5.2,28.9c3.4,8.1,8,10.5,16.5,13.5c0.6,1.7,0,16.5-1.7,16.8
	c-1.6,0.7-3.4,1.1-5.1,1.2c-7.1-0.3-10.9,19.1-10.9,24.5c0,11,6.6,17.8,14.8,24.5c14.3,11.5,41.8,2.9,49.5-15.3
	c4.6-10.8,5.7-17.2,9.2-27.2c0.3-0.9,3-6.7,3.6-7.2l-1.3-0.6c-5.2-0.5-15.1-4.3-20.8-3.8C220,187.5,218.5,171.4,217.6,168.9z"/>
<path class="st2" d="M250.7,187.9c-1.5,1-8.9,3.2-10,6.2c-7.4,21.2,2.1,83.3,21,69c9.7-7.3,6.1-28.3,11-36.8
	c19.9-47.7,46.1-97.5,63.1-151.1c1.6-5,15.4-20.8,21.1-32.2c3.6-7.4,2-10.4-2.1-12.8c0,0-1.2-5.4-5.6-4.9c-0.9,0.1-0.1-2.6-3.7-4.3
	c-1-0.5-2.9,0.1-3.4-0.7c-2.6-4.4-6.7-2.5-8-0.7s-3.5,6.2-5.1,9.1c-0.2,0.4-4.8,1.7-8.2,2.4c-8.3,1.6,0.9,19.5-4.6,31.8
	c-9.3,21-27,50.1-35.9,77.1C278.8,143.6,252.3,182.2,250.7,187.9z"/>
<path class="st1" d="M250.7,187.9c-1.5,1-8.9,3.2-10,6.2c-7.4,21.2,2.1,83.3,21,69c9.7-7.3,6.1-28.3,11-36.8
	c19.9-47.7,46.1-97.5,63.1-151.1c1.6-5,15.4-20.8,21.1-32.2c3.6-7.4,2-10.4-2.1-12.8c0,0-1.2-5.4-5.6-4.9c-0.9,0.1-0.1-2.6-3.7-4.3
	c-1-0.5-2.9,0.1-3.4-0.7c-2.6-4.4-6.7-2.5-8-0.7s-3.5,6.2-5.1,9.1c-0.2,0.4-4.8,1.7-8.2,2.4c-8.3,1.6,0.9,19.5-4.6,31.8
	c-9.3,21-27,50.1-35.9,77.1C278.8,143.6,252.3,182.2,250.7,187.9z"/>
<path class="st1" d="M326.6,29.7c3.2-0.6,5.2-0.5,6.3,0s5.9,6.5,5.8,7.6c-0.3,1.7-1.6,3-3.3,3.3c-1.9,0.3-5-2.5-6.1-1.9
	c-2.5,1.3-0.4-0.8,2.3,4.6c1.4,2.7,3.5,8.5,3.4,11.6"/>
<path class="st1" d="M330,38.2c-0.8-0.5-0.9-2.1-0.9-3"/>
<path class="st1" d="M328.2,39.2c-1.1-0.1-2.1,0.1-3.1,0.5"/>
<path class="st1" d="M341.5,21.2c-1.5,1.2-4.2,8-5.7,9.6"/>
<path class="st1" d="M348.8,24.7c0,0-5.9,10-6.3,10.3c-0.9,0.8-2.9,2.3-4.4,0.5"/>
<path class="st1" d="M354.1,30.3c-0.8,1.7-1.7,3.3-2.7,4.8c-1.8,2.6-6.8,8-8.5,1.6c0-1,0.1-2,0.4-3"/>
<path class="st1" d="M354.5,30.1c-1.7,2.6-3.2,5.3-4.5,8c-0.8,1.7-0.1,5.4,3,4.2c0.8-0.5,1.6-1.1,2.2-1.9"/>
<path class="st1" d="M283.2,143.4c2,2.5,3.8,5.2,5.3,8"/>
<path class="st3" d="M168.3,318.6c10.9,10.6,91.4,2.5,90.9-6c-1.1-17.5,9-53.7,8.7-58c-0.2-3.8-12.5,17.4-20.5-7.5
	c-4.1-12.7-11.9-45.4-5.1-56.8c-2.8-1.2-6.7-0.6-8.8-0.1c-5.4,1.2-10.1,17.2-14.4,28.6c-10.8,28-40.2,31.8-40.2-6.7
	c0-8,6.6-20.1,5.5-20.6c0,0-6.2-0.6-7.9-0.1c-6,1.8-7.7,10.3-9.4,17c-5.1,19.2-5.8,28.9-16,48.4c-15.8,30.2,11.6,35.4,13,47.4
	C164.6,309.9,166.7,313.8,168.3,318.6z"/>
<path class="st1" d="M168.3,318.6c10.9,10.6,91.4,2.5,90.9-6c-1.1-17.5,9-53.7,8.7-58c-0.2-3.8-12.5,17.4-20.5-7.5
	c-4.1-12.7-11.9-45.4-5.1-56.8c-2.8-1.2-6.7-0.6-8.8-0.1c-5.4,1.2-10.1,17.2-14.4,28.6c-10.8,28-40.2,31.8-40.2-6.7
	c0-8,6.6-20.1,5.5-20.6c0,0-6.2-0.6-7.9-0.1c-6,1.8-7.7,10.3-9.4,17c-5.1,19.2-5.8,28.9-16,48.4c-15.8,30.2,11.6,35.4,13,47.4
	C164.6,309.9,166.7,313.8,168.3,318.6z"/>
<path class="st0" d="M164.8,306.8c-0.8-5.1-1.9-9.9-3-14.7c-1.8-7.9-6.2-10.2-5.2-25.6c0.3-5,4.6-2.7,13.4-2.6
	c15.3,0.1,43.5-0.2,53.4-1.8c1-0.2,0.5,4.6,0.9,10.8c0.4,5.7,1.5,13,3.4,16.5c0.5,0.9,1.6-0.1,1.8,0.9c1.4,8.2,2.2,18.1,2.2,18.1
	c-9.7,7.6-63.4,7.6-66.5,1.6C164.7,308.9,165.1,308.7,164.8,306.8z"/>
<path class="st1" d="M164.8,306.8c-0.8-5.1-1.9-9.9-3-14.7c-1.8-7.9-6.2-10.2-5.2-25.6c0.3-5,4.6-2.7,13.4-2.6
	c15.3,0.1,43.5-0.2,53.4-1.8c1-0.2,0.5,4.6,0.9,10.8c0.4,5.7,1.5,13,3.4,16.5c0.5,0.9,1.6-0.1,1.8,0.9c1.4,8.2,2.2,18.1,2.2,18.1
	c-9.7,7.6-63.4,7.6-66.5,1.6C164.7,308.9,165.1,308.7,164.8,306.8z"/>
<path class="st1" d="M222,289.6c14.6,0.6,19.8-7.3,22.2-7.8l0.3-0.5"/>
<path class="st1" d="M168.2,276.5c0-7,7.6-8.3,7.6,1.2c0,3.1,0.2,3.2-0.7,6.1c-1.8,6-4.8,15.6-3.9,22c0,0.2,7.8,0.7,9.2,0.7"/>
<path class="st1" d="M186.5,306c-4.3-6.5-2-13.4,0.8-20.2c1.2-2.9,3.4-17.4-2.9-14.8c-2.4,1-0.4,8,1.2,10.4c3.3,4.9,9.1,13.3,9,19.4
	c-0.1,5.1-1.9,7.1-6.6,6.3C187.4,306.9,186.9,306.5,186.5,306z"/>
<path class="st1" d="M194.6,279.6c0.2-0.5,5.1-8.2,5.1-9c1.1,6.4,0.4,12.8,1.8,20.2c0.9,4.9,0.7,10.2,1.7,15.8
	c0.1,0.3,0.1,0.7,0.2,1"/>
<path class="st1" d="M212.3,269.7c0.1,3-4.8,24.4-3.4,24.5c3.5,0.1,6.6,0.6,9.8-0.6"/>
<path class="st1" d="M214.7,287.5c0.4,6,0.8,10.9,1.7,16.8c0.1,0.4,0.1,1.9,0.1,2.4"/>
<path class="st1" d="M256.1,233.9c0.2-4-6-13.8-6-20.4c1.1-2.9,1.9-10.2,0.1-13.1"/>
<path class="st1" d="M184.8,174.2c2.9,1,10.4,1.2,13.1-0.3"/>
<path class="st1" d="M195.6,196c6,5.9,5.8,0.2,11.5-1.3"/>
<path class="st1" d="M199.1,350.4c0.2,0.8,1.9,6,0,6.2c-0.3,0-0.5-0.1-0.7-0.3"/>
<path class="st1" d="M193.6,323.7c-0.4,6.3,1.4,4.4,1.8,9c0.2,2.6,0.6,5.1,1.1,7.6"/>
<path class="st1" d="M235.6,344.6c-3.2,6.8-5,19-4.9,19.2"/>
<path class="st1" d="M193.5,239.9c0.2-1.7,1.6-8.3,1.6-9"/>
<path class="st1" d="M170.5,370.6c-0.6,7.9-7.9,23.5-4.8,44.3"/>
<path class="st1" d="M271.4,358.2c7,9.5,15.6,41.6,16.3,50c0.4,5.1,0.4,8.6,0.4,13.7"/>
<path class="st1" d="M215.1,398.4c-3.7,5.5-9,12.5-10.6,19.4"/>
<path class="st6" d="M202.8,115.5c1.6,0,8.8,2.9,9.3,3.6"/>
<path class="st6" d="M191.7,114.5c-2.3-0.1-4.6,0-6.8,0.3h-0.2"/>
<path class="st1" d="M185,136.8c0.1-4.4,5.1-4.3,8-1.5"/>
<path class="st5" d="M201.1,134c0.1,0.6,0.5,0.6,1.1-1.8c0.3-1.1,1.2-5.2,0.6-4.8S200.9,133.1,201.1,134z"/>
<path class="st1" d="M201.1,134c0.1,0.6,0.5,0.6,1.1-1.8c0.3-1.1,1.2-5.2,0.6-4.8S200.9,133.1,201.1,134z"/>
<path class="st5" d="M185.5,130.5c0.1,0.6,0.5,0.6,1.1-1.8c0.3-1.1,1.2-5,0.6-4.7S185.3,129.7,185.5,130.5z"/>
<path class="st1" d="M185.5,130.5c0.1,0.6,0.5,0.6,1.1-1.8c0.3-1.1,1.2-5,0.6-4.7S185.3,129.7,185.5,130.5z"/>
<path class="st1" d="M224,141.2c-0.9,0.4-1.5,2.4-0.6,3.2"/>
<path class="st5" d="M199.2,101.3c1.6,1.5,5.9,0,7.7-0.5c0,0-2.2,9.7,7.4,7.8c0.6-0.1-1,0.8-1.4,2.6c-1,4.4,0.7,7.9,5.3,9.1
	c-2.3,0.8-6.9,7.5-1.4,9.8c0,0.4-5.2,5.4,3.2,7.8c6.8,2,17.4-8,17.4-16.1c0.1-10.9-0.8-15.9-9.3-24.2
	C210.5,80.4,190.2,93,199.2,101.3z"/>
<path class="st1" d="M199.2,101.3c1.6,1.5,5.9,0,7.7-0.5c0,0-2.2,9.7,7.4,7.8c0.6-0.1-1,0.8-1.4,2.6c-1,4.4,0.7,7.9,5.3,9.1
	c-2.3,0.8-6.9,7.5-1.4,9.8c0,0.4-5.2,5.4,3.2,7.8c6.8,2,17.4-8,17.4-16.1c0.1-10.9-0.8-15.9-9.3-24.2
	C210.5,80.4,190.2,93,199.2,101.3z"/>
<path class="st5" d="M219.6,149.9c-4.2-0.5-9.4,4.1-7.2,8.2c1.2,2.3,2.5-0.9-1.4,3c-2.3,2.3-0.1,6.4,2.6,8.2
	c-5.6,3.1-4.2,9.3,0.3,10.5c0.4,0.1-1,5.8,5.5,6.8c0.2,0,3,8.6,15.8,1.2c6.9-4,6.1-9.8,3.2-17.3C234.8,161.6,220,153.6,219.6,149.9z
	"/>
<path class="st1" d="M219.6,149.9c-4.2-0.5-9.4,4.1-7.2,8.2c1.2,2.3,2.5-0.9-1.4,3c-2.3,2.3-0.1,6.4,2.6,8.2
	c-5.6,3.1-4.2,9.3,0.3,10.5c0.4,0.1-1,5.8,5.5,6.8c0.2,0,3,8.6,15.8,1.2c6.9-4,6.1-9.8,3.2-17.3C234.8,161.6,220,153.6,219.6,149.9z
	"/>
<path class="st4" d="M289,324.2c-3.3,1.1-7.5-0.1-11.5,5.8c-3.5,5-5.2,12.6-6.1,14.9c-1.2,3.1-0.3,3.8-1.9,6.5s-3.3,5.2-8.3,8.7
	c-11.5,8-19.2,11.3-39.4,11.7c-14.6,0.3-36.5-1.7-45-5.3c-4-1.7-4.7-3.2-5-4.3c-0.1-0.2,1.1-17.7,1.1-17.7s2.6,6.2,18.8,8.4
	c24.9,3.4,49.4,5.4,68-13.1c5.7-5.7,1.4-4.3,4.1-11.5c1.3-3.6,2.2-7,4.6-11c2.9-4.6,9.8-9.3,14.3-11c3.5-1.3,13.9-3.2,13.9-6.4
	c0-2.5,0,1.7,0,9.2c0,2.5,0,3.9,0.1,6.2C296.8,321.5,295,322.2,289,324.2z"/>
<path class="st1" d="M289,324.2c-3.3,1.1-7.5-0.1-11.5,5.8c-3.5,5-5.2,12.6-6.1,14.9c-1.2,3.1-0.3,3.8-1.9,6.5s-3.3,5.2-8.3,8.7
	c-11.5,8-19.2,11.3-39.4,11.7c-14.6,0.3-36.5-1.7-45-5.3c-4-1.7-4.7-3.2-5-4.3c-0.1-0.2,1.1-17.7,1.1-17.7s2.6,6.2,18.8,8.4
	c24.9,3.4,49.4,5.4,68-13.1c5.7-5.7,1.4-4.3,4.1-11.5c1.3-3.6,2.2-7,4.6-11c2.9-4.6,9.8-9.3,14.3-11c3.5-1.3,13.9-3.2,13.9-6.4
	c0-2.5,0,1.7,0,9.2c0,2.5,0,3.9,0.1,6.2C296.8,321.5,295,322.2,289,324.2z"/>
<path class="st4" d="M292.1,291.4c3.6,3.6,4.1,7.9,4.2,11.6c0.1,3.3,0.2,6.4,0.3,6.4c0-2-0.2-4.7-0.3-6.4c-0.1-4.6-0.6-7.2-3.6-10.9
	c-3.8-4.6-13.8-12.7-3.5-18.4c9.1-5.1,36.2,1.1,54.7-6.1c3.6-1.4,11.7-7.5,14.6-10.6c1,9.5-0.2,9.6-0.2,17.8
	c-8,7.8-13.5,13.6-30.1,13.6C324,288.5,290.4,289.7,292.1,291.4z"/>
<path class="st1" d="M292.1,291.4c3.6,3.6,4.1,7.9,4.2,11.6c0.1,3.3,0.2,6.4,0.3,6.4c0-2-0.2-4.7-0.3-6.4c-0.1-4.6-0.6-7.2-3.6-10.9
	c-3.8-4.6-13.8-12.7-3.5-18.4c9.1-5.1,36.2,1.1,54.7-6.1c3.6-1.4,11.7-7.5,14.6-10.6c1,9.5-0.2,9.6-0.2,17.8
	c-8,7.8-13.5,13.6-30.1,13.6C324,288.5,290.4,289.7,292.1,291.4z"/>
<line class="st1" x1="262.7" y1="332.7" x2="266.8" y2="341.3"/>
<path class="st1" d="M114.9,23c-4,1.1-4.1-1.5-7.2,4.8c-1.6,3.2-7,9.8,2.2,7c2.1-0.7,3.8-2.9,5.3-4.3"/>
<line class="st1" x1="113.6" y1="32.7" x2="116.2" y2="33"/>
<path class="st1" d="M111.8,34.5c-4.3,3.8-2.6,2.6-5.1,6.3c-1,1.9-1.5,4-1.5,6.2"/>
<path class="st1" d="M100.1,20.8c1,1.7,3.8,6.8,5.9,7.6"/>
<path class="st1" d="M94.4,27.5c0,0,5.6,6,6.4,6.5c0.2,0.1,2.3,1.9,2.9,1"/>
<path class="st1" d="M89.6,33.2c2.3,1.8,7.2,7.3,10.6,7.3c1.1,0.1,2.1-0.5,2.4-1.5"/>
<path class="st1" d="M89.6,34.1c1,0.7,8.5,5.9,9,7.1c1.3,2.9,0,4-3.1,3.5c-1.2-0.1-2.3-0.4-3.4-0.7"/>
<path class="st1" d="M123.9,137.1c1.2-1.5,8.2-5.9,10.3-6.6"/>
<path class="st1" d="M151.4,199.5c2.4,4.7,7.4,11.7,7.4,17.1"/>
<path class="st7" d="M181.7,149.2c1.4-0.9,5-0.4,7.4-1.4c5.2-2.1,10.2-2,10.4,4.6c0.1,3.5-5.4,5.8-7.5,6.2c-4.7,1-8.9,0.6-11.6-3.6
	c-1.3-1.8-0.8-4.3,1-5.6C181.5,149.4,181.6,149.3,181.7,149.2z"/>
<path class="st8" d="M181.7,149.2c1.4-0.9,5-0.4,7.4-1.4c5.2-2.1,10.2-2,10.4,4.6c0.1,3.5-5.4,5.8-7.5,6.2c-4.7,1-8.9,0.6-11.6-3.6
	c-1.3-1.8-0.8-4.3,1-5.6C181.5,149.4,181.6,149.3,181.7,149.2z"/>
<path class="st0" d="M157.5,60.1c-2.6,10.9-9.8,8.3-9.8,17c4.1-0.5,6.5,2.1,6.7-0.7c0.5-6,6.7-4.8,9.5-13.7c1.1-3.6-0.7-0.7-5.5-2.6
	C158.1,59.8,157.6,59.8,157.5,60.1z"/>
<path class="st1" d="M157.5,60.1c-2.6,10.9-9.8,8.3-9.8,17c4.1-0.5,6.5,2.1,6.7-0.7c0.5-6,6.7-4.8,9.5-13.7c1.1-3.6-0.7-0.7-5.5-2.6
	C158.1,59.8,157.6,59.8,157.5,60.1z"/>
<path class="st0" d="M185.8,37.5c-1,10.5,12,9.9,7.3,22.1c-1.4,3.6-0.1,4.9,0.4,5.9c0.6,0.1,8.7,1.2,6.4-2s5.2-11.4-4.9-19.7
	c-3.2-2.7-1.7-5.2-2.4-5.9S189.5,37.3,185.8,37.5z"/>
<path class="st1" d="M185.8,37.5c-1,10.5,12,9.9,7.3,22.1c-1.4,3.6-0.1,4.9,0.4,5.9c0.6,0.1,8.7,1.2,6.4-2s5.2-11.4-4.9-19.7
	c-3.2-2.7-1.7-5.2-2.4-5.9S189.5,37.3,185.8,37.5z"/>
<path class="st0" d="M280.1,44.2c-14.7,6.8-12.5,6-14.3,10.8c-0.8,2.1-1.9,4.1-3.2,5.9c-0.4,0.6,3.3,5.3,4.7,3.7
	c0.9-1,3.9-6.6,4.3-8.9c0.7-4.4,11.1-4.3,10.9-6.1C282.3,49.5,280.5,44,280.1,44.2z"/>
<path class="st1" d="M280.1,44.2c-14.7,6.8-12.5,6-14.3,10.8c-0.8,2.1-1.9,4.1-3.2,5.9c-0.4,0.6,3.3,5.3,4.7,3.7
	c0.9-1,3.9-6.6,4.3-8.9c0.7-4.4,11.1-4.3,10.9-6.1C282.3,49.5,280.5,44,280.1,44.2z"/>
<path class="st0" d="M272.9,101.1c-3.9,13.3,14,7.2,19,15.6c1,1.7,3.9-3.8,3.9-3.8c-2.7-6.5-15.8-6.6-16.7-8.4s-0.1-3-0.5-3.6
	C278.3,100.5,275.9,101.1,272.9,101.1z"/>
<path class="st1" d="M272.9,101.1c-3.9,13.3,14,7.2,19,15.6c1,1.7,3.9-3.8,3.9-3.8c-2.7-6.5-15.8-6.6-16.7-8.4s-0.1-3-0.5-3.6
	C278.3,100.5,275.9,101.1,272.9,101.1z"/>
<path class="st0" d="M95.1,118.5c11.9,6.3,12.4-1.9,19.7,0c0.5,0.1,0.9,5.6-0.3,5.6c-6,0-11.4,5.3-20.4-0.1
	C91.9,122.8,94.4,118.2,95.1,118.5z"/>
<path class="st1" d="M95.1,118.5c11.9,6.3,12.4-1.9,19.7,0c0.5,0.1,0.9,5.6-0.3,5.6c-6,0-11.4,5.3-20.4-0.1
	C91.9,122.8,94.4,118.2,95.1,118.5z"/>
<path class="st0" d="M232,22.7c6-3.9,12.6-7.7,23.4,0.7c1,0.7-3.1,6.8-4.1,5.6c-2.9-3.6-10.4-6.4-15.8-0.6c-0.9,0.9-7.9-5.2-4.3-5
	C232,23.6,231.4,23.1,232,22.7z"/>
<path class="st1" d="M232,22.7c6-3.9,12.6-7.7,23.4,0.7c1,0.7-3.1,6.8-4.1,5.6c-2.9-3.6-10.4-6.4-15.8-0.6c-0.9,0.9-7.9-5.2-4.3-5
	C232,23.6,231.4,23.1,232,22.7z"/>
<path class="st0" d="M244.6,83.6c0,11.5-5.7,12-5.2,17c9,4.5,3.4,1.9,8.2-4.9c2-2.8,6.3-12.2,0.6-12.2
	C247.4,83.4,244.6,83.3,244.6,83.6z"/>
<path class="st1" d="M244.6,83.6c0,11.5-5.7,12-5.2,17c9,4.5,3.4,1.9,8.2-4.9c2-2.8,6.3-12.2,0.6-12.2
	C247.4,83.4,244.6,83.3,244.6,83.6z"/>
<path class="st0" d="M247.1,131.3c5.7,4.8,12.9,2.8,21.3,3.8c3.3,0.4-1.3,5.8-1.3,5.8c-2.8-1.1-18.9,1.6-23.2-5.5
	C243.6,134.8,247.1,131.3,247.1,131.3z"/>
<path class="st1" d="M247.1,131.3c5.7,4.8,12.9,2.8,21.3,3.8c3.3,0.4-1.3,5.8-1.3,5.8c-2.8-1.1-18.9,1.6-23.2-5.5
	C243.6,134.8,247.1,131.3,247.1,131.3z"/>
<path class="st0" d="M283.6,184.2c3.4,2.2,7.1,9.5,14.8,8.9c0.6,0-8.8,7.7-17.5-1.1c-4.4-4.4-3.6-3.7,2-7.9L283.6,184.2z"/>
<path class="st1" d="M283.6,184.2c3.4,2.2,7.1,9.5,14.8,8.9c0.6,0-8.8,7.7-17.5-1.1c-4.4-4.4-3.6-3.7,2-7.9L283.6,184.2z"/>
<path class="st0" d="M164.3,187c1.2,7.3,14,7.4,17.9,14.1c2.5,4.3,4.2-4.3,4-4.5c-3.8-3.8-6.7-4.9-11.5-7c-5.1-2.2-6.1-7.4-6.7-6.2
	C167.4,184.4,164.2,187,164.3,187z"/>
<path class="st1" d="M164.3,187c1.2,7.3,14,7.4,17.9,14.1c2.5,4.3,4.2-4.3,4-4.5c-3.8-3.8-6.7-4.9-11.5-7c-5.1-2.2-6.1-7.4-6.7-6.2
	C167.4,184.4,164.2,187,164.3,187z"/>
<path class="st0" d="M295.7,154.5c4.6-3.2,6.3-3.3,12.2-2.9c3.2,0.3,6.4-0.7,8.9-2.7c-0.3,0.4,2.4,5,2.1,5.4
	c-6.3,7-12.8,1.8-19.6,5.1C298.7,159.8,295,155,295.7,154.5z"/>
<path class="st1" d="M295.7,154.5c4.6-3.2,6.3-3.3,12.2-2.9c3.2,0.3,6.4-0.7,8.9-2.7c-0.3,0.4,2.4,5,2.1,5.4
	c-6.3,7-12.8,1.8-19.6,5.1C298.7,159.8,295,155,295.7,154.5z"/>
<path class="st5" d="M315.6,43.4c2.4,2.3,0.7-3.5,0.8-5c0.2-3.2-1.5-6.4,2.7-7.2c2.2-0.4,8.7-1.8,9.7-3.9c0.7-1.6,3-5.1,1.4-5.9
	c-1.9-1.3-3.8-2.4-5.9-3.4c-2.4-1.2-4.8-1.8-6.1-0.3c-3.6,4.1-6.8,8.5-9.7,13.1c-1.9,3.3-1.5,5.1-0.2,6.6
	C310.5,39.5,313,41.5,315.6,43.4z"/>
<path class="st1" d="M315.6,43.4c2.4,2.3,0.7-3.5,0.8-5c0.2-3.2-1.5-6.4,2.7-7.2c2.2-0.4,8.7-1.8,9.7-3.9c0.7-1.6,3-5.1,1.4-5.9
	c-1.9-1.3-3.8-2.4-5.9-3.4c-2.4-1.2-4.8-1.8-6.1-0.3c-3.6,4.1-6.8,8.5-9.7,13.1c-1.9,3.3-1.5,5.1-0.2,6.6
	C310.5,39.5,313,41.5,315.6,43.4z"/>
<path class="st5" d="M335,53.5c-0.2-2.6-3.1-9.4-4-11.4c-2.2-5-2.3-2.5,4.4-2.5c3,0,2.5-2.9,3.9-2.9c3.8,0-0.1-1.7,4.3,2.4
	c1.2,1.1,4.4,0.4,5.8-0.2c0.3,1.2-0.5,2.4,2.2,3.1c2.3,0.6,4.7-2.2,6.1-3.2c0.2-0.1,0-0.3,0.4-0.1c1.2,0.7,4.9,2.4,5.5,3.7
	c1,2.2-0.1,3.3-0.2,3.8l-8.7,13.8c-1.7,2.7-3.5,3.7-7,2l-0.7-0.5L335,53.5z"/>
<path class="st1" d="M335,53.5c-0.2-2.6-3.1-9.4-4-11.4c-2.2-5-2.3-2.5,4.4-2.5c3,0,2.5-2.9,3.9-2.9c3.8,0-0.1-1.7,4.3,2.4
	c1.2,1.1,4.4,0.4,5.8-0.2c0.3,1.2-0.5,2.4,2.2,3.1c2.3,0.6,4.7-2.2,6.1-3.2c0.2-0.1,0-0.3,0.4-0.1c1.2,0.7,4.9,2.4,5.5,3.7
	c1,2.2-0.1,3.3-0.2,3.8l-8.7,13.8c-1.7,2.7-3.5,3.7-7,2l-0.7-0.5L335,53.5z"/>
</svg>
