<?xml version="1.0" encoding="utf-8"?>
<!-- Generator: Adobe Illustrator 26.3.1, SVG Export Plug-In . SVG Version: 6.00 Build 0)  -->
<svg version="1.1" id="Layer_1" xmlns="http://www.w3.org/2000/svg" xmlns:xlink="http://www.w3.org/1999/xlink" x="0px" y="0px"
	 viewBox="0 0 450 450" style="enable-background:new 0 0 450 450;" xml:space="preserve">
<style type="text/css">
	.st0{fill-rule:evenodd;clip-rule:evenodd;fill:#FEFEFE;}
	.st1{fill-rule:evenodd;clip-rule:evenodd;}
	.st2{fill:none;stroke:#000000;stroke-width:2.83;stroke-linecap:round;stroke-linejoin:round;}
	.st3{fill:#D175BF;}
	.st4{fill:#D2AE6D;}
	.st5{fill:#9999FF;}
	.st6{fill:none;stroke:#FEFEFE;stroke-width:2.83;stroke-linecap:round;stroke-linejoin:round;}
	.st7{fill-rule:evenodd;clip-rule:evenodd;fill:#009933;}
	.st8{fill-rule:evenodd;clip-rule:evenodd;fill:#006633;}
	.st9{fill-rule:evenodd;clip-rule:evenodd;fill:#FAC384;}
	.st10{fill-rule:evenodd;clip-rule:evenodd;fill:#9999FF;}
	.st11{fill-rule:evenodd;clip-rule:evenodd;fill:#FCD5A9;}
	.st12{fill:none;stroke:#000000;stroke-width:3.4;stroke-linecap:round;stroke-linejoin:round;}
	.st13{fill:none;stroke:#808080;stroke-width:2.83;stroke-linecap:round;stroke-linejoin:round;}
	.st14{fill-rule:evenodd;clip-rule:evenodd;fill:#FFFFFF;}
	.st15{fill-rule:evenodd;clip-rule:evenodd;fill:#EFC697;}
</style>
<path class="st0" d="M133.4,426.9c-0.9-3.1,0.6-74.2,1.8-83.2c3.9-30,4-49.1,2.8-78.5c-0.2-4.2,24.9-45.1,33.9-51.1
	c6.6-4.3-0.6-18.5,15-18.3c5.7,0.1,38.6-0.9,40.7,6.4c1.3,4.5,19.7,6.7,29,11.8c12.6,6.8,24.8,5.9,32.5,18.6
	c5.1,8.5,7.7,7.8,7.8,25.6c0.1,8.6,3.7,52.1,7.1,54.6c6.5,4.6,26.7,13.3,16.6,25.9c-17.8,22.2-42.9,1.1-43,2
	c-1.5,17.7,0.9,40.7,0,61.7c-0.3,6.9,4.1,27-2.6,29.9c-21.7,9.4-22.8-3.3-50.7,3.5c-18.1,4.4-22.9-8.8-51.9-0.6
	c-1.9,0.5-37.3,3.9-38.9-1C132.6,430.4,132.9,428.7,133.4,426.9"/>
<path class="st1" d="M78.2,217.5c0.6-0.6,2.4,0.2,4.2,0.3c3.1,0.2,4.1,0.9,8.7,0.9c1.8,0,9.5-0.6,10.9-1.4
	c0.1-0.1,4.1,12.8-11.2,14.9C76.4,234.2,77.5,218.1,78.2,217.5z"/>
<path class="st2" d="M78.2,217.5c0.6-0.6,2.4,0.2,4.2,0.3c3.1,0.2,4.1,0.9,8.7,0.9c1.8,0,9.5-0.6,10.9-1.4
	c0.1-0.1,4.1,12.8-11.2,14.9C76.4,234.2,77.5,218.1,78.2,217.5z"/>
<path class="st3" d="M124.8,14.6h146.6c10.2,0,18.4,8.3,18.4,18.4v77.3c0,10.2-8.3,18.4-18.4,18.4H124.8c-10.2,0-18.4-8.3-18.4-18.4
	V33.1C106.3,22.9,114.6,14.6,124.8,14.6z"/>
<path class="st2" d="M124.8,14.6h146.6c10.2,0,18.4,8.3,18.4,18.4v77.3c0,10.2-8.3,18.4-18.4,18.4H124.8c-10.2,0-18.4-8.3-18.4-18.4
	V33.1C106.3,22.9,114.6,14.6,124.8,14.6z"/>
<path class="st2" d="M243.9,68.1c0.8,0,1.4,0.6,1.4,1.4c0,0.8-0.6,1.4-1.4,1.4c-0.8,0-1.4-0.6-1.4-1.4
	C242.5,68.7,243.1,68.1,243.9,68.1C243.9,68.1,243.9,68.1,243.9,68.1z"/>
<path class="st2" d="M252.1,64.9c0.8,1.5,1.2,3.3,1.1,5c-0.1,1.2-0.4,2.4-0.9,3.5"/>
<path class="st2" d="M259,61.5c2.6,4.8,2.7,10.5,0.4,15.4"/>
<path class="st2" d="M264.7,56.4c4.3,7.9,4.5,17.4,0.7,25.6"/>
<path class="st4" d="M130.4,55.2h25.8c4.4,0,7.9,3.5,7.9,7.9v12.5c0,4.4-3.5,7.9-7.9,7.9h-25.8c-4.4,0-7.9-3.5-7.9-7.9V63
	C122.5,58.7,126,55.2,130.4,55.2z"/>
<path class="st2" d="M130.4,55.2h25.8c4.4,0,7.9,3.5,7.9,7.9v12.5c0,4.4-3.5,7.9-7.9,7.9h-25.8c-4.4,0-7.9-3.5-7.9-7.9V63
	C122.5,58.7,126,55.2,130.4,55.2z"/>
<path class="st2" d="M129.6,65.4h8.3c3.1-5.4,10-2.7,10.4,0h7.2"/>
<path class="st2" d="M129.6,73.4h8.3c3.1,5.3,10,2.7,10.4,0h7.2"/>
<circle class="st5" cx="295.9" cy="130.8" r="26.5"/>
<circle class="st2" cx="295.9" cy="130.8" r="26.5"/>
<path class="st6" d="M286,129.7l6.9,10c1.5-2.4,11.2-16.4,12.3-18.3"/>
<path class="st7" d="M139.1,186.8c3.9,8.1,0.3,4.6,9.4,9.7c7.8,4.4,7.7,6.2,11,13.5c3.1,6.7,15.2,5.1,14.7-1.9
	c-0.3-4.3-8.8-2.7-7.9-7.7c1.6-9.7-4.6-5.6-7.5-14.3c-3.4-9.9-9.4-5.7-17.7-7.8c-1.7-0.4-4.5,4.9-2,8.2L139.1,186.8z"/>
<path class="st2" d="M139.1,186.8c3.9,8.1,0.3,4.6,9.4,9.7c7.8,4.4,7.7,6.2,11,13.5c3.1,6.7,15.2,5.1,14.7-1.9
	c-0.3-4.3-8.8-2.7-7.9-7.7c1.6-9.7-4.6-5.6-7.5-14.3c-3.4-9.9-9.4-5.7-17.7-7.8c-1.7-0.4-4.5,4.9-2,8.2L139.1,186.8z"/>
<path class="st7" d="M141.4,240.6c-0.3-1.4,0.6-6.2-0.7-12.2c-3.3-14.8,4.1-21.1-3.2-31.3c-6.6-9.4-3.2-19.6,4.7-26.4
	c6.8-5.9,17.3,1.8,10.2,11.7c-6.4,8.8,11,8.7,6.1,21.6c-3.9,10.2,1.2,5.9-3.2,17.4c-1.4,3.6-12.4-0.2-8.6,8.4
	c3.5,7.8-2.3,28.2-5.4,14.1C141.1,242.8,141.6,241.4,141.4,240.6z"/>
<path class="st2" d="M141.4,240.6c-0.3-1.4,0.6-6.2-0.7-12.2c-3.3-14.8,4.1-21.1-3.2-31.3c-6.6-9.4-3.2-19.6,4.7-26.4
	c6.8-5.9,17.3,1.8,10.2,11.7c-6.4,8.8,11,8.7,6.1,21.6c-3.9,10.2,1.2,5.9-3.2,17.4c-1.4,3.6-12.4-0.2-8.6,8.4
	c3.5,7.8-2.3,28.2-5.4,14.1C141.1,242.8,141.6,241.4,141.4,240.6z"/>
<path class="st8" d="M130.4,185.2c2-5.2,10.2-3.7,10.3,0.9c0.1,6.7,10.4,3.4,8.2,13.6c-0.9,3.9,4,7.4-2.7,10.3
	c-4.3,1.9-3.3,10.1-14,4.8c-5.4-2.7-10-9.6-2-14c3.3-1.8,7-6.7,1.3-8.7C128.9,191.1,129.6,187.2,130.4,185.2z"/>
<path class="st2" d="M130.4,185.2c2-5.2,10.2-3.7,10.3,0.9c0.1,6.7,10.4,3.4,8.2,13.6c-0.9,3.9,4,7.4-2.7,10.3
	c-4.3,1.9-3.3,10.1-14,4.8c-5.4-2.7-10-9.6-2-14c3.3-1.8,7-6.7,1.3-8.7C128.9,191.1,129.6,187.2,130.4,185.2z"/>
<path class="st9" d="M117.1,153.6c-0.9-1.4-1.6-5,0.2-6.1s3.7-0.9,5.7-0.9c3.6,0,2.1,5.9,2.3,8.2c0.1,1.2-1.2,0.8-2.8,0.9
	c-3.3,0.2-4-1.1-5.9-2.4C116.2,153.1,117,153.5,117.1,153.6z"/>
<path class="st2" d="M117.1,153.6c-0.9-1.4-1.6-5,0.2-6.1s3.7-0.9,5.7-0.9c3.6,0,2.1,5.9,2.3,8.2c0.1,1.2-1.2,0.8-2.8,0.9
	c-3.3,0.2-4-1.1-5.9-2.4C116.2,153.1,117,153.5,117.1,153.6z"/>
<path class="st1" d="M115.2,177.2c2-1.6,1.4-11.9,1-16.8c-0.5-5.1-0.7-6.3,1.9-6.8c8.3-1.7,8.5,1.2,8.5,5.1c0,3.6,0.8,9.4,1,12.9
	c0.4,9.4,12.5,4,14.2,23.7c0.9,10.6,2.6,28.6,3.1,32.6c0.3,2.5-31.1,12.1-34.1,7.1c-4-6.7-5-27.4-5.7-38.6S109.8,181.4,115.2,177.2z
	"/>
<path class="st2" d="M115.2,177.2c2-1.6,1.4-11.9,1-16.8c-0.5-5.1-0.7-6.3,1.9-6.8c8.3-1.7,8.5,1.2,8.5,5.1c0,3.6,0.8,9.4,1,12.9
	c0.4,9.4,12.5,4,14.2,23.7c0.9,10.6,2.6,28.6,3.1,32.6c0.3,2.5-31.1,12.1-34.1,7.1c-4-6.7-5-27.4-5.7-38.6S109.8,181.4,115.2,177.2z
	"/>
<path class="st10" d="M143.3,223.5l-2.2-29.5c-1.6-0.3-2.9-1.2-4.9-1.2c-1.8,0-3.2-0.3-5.5-0.1c-4.1,0.3-3.3-0.5-2.9,4.4
	c0.4,5.6,1.4,12.7,1.2,18.2c0,0.8,0.2,8.2,1,8.7C131.4,225,141.4,224.4,143.3,223.5z"/>
<path class="st2" d="M143.3,223.5l-2.2-29.5c-1.6-0.3-2.9-1.2-4.9-1.2c-1.8,0-3.2-0.3-5.5-0.1c-4.1,0.3-3.3-0.5-2.9,4.4
	c0.4,5.6,1.4,12.7,1.2,18.2c0,0.8,0.2,8.2,1,8.7C131.4,225,141.4,224.4,143.3,223.5z"/>
<path class="st6" d="M108.5,187.8c4-7.3,8.6-7.4,10-9.3c0.1-0.2,0.2-0.3,0.2-0.5"/>
<path class="st6" d="M131.1,181c2.1,0.6,4.8,4,5.3,4.1"/>
<path class="st11" d="M84.1,217.9c-4.5-8.9-14.3-72.8,3.9-53.9c10.4,10.8,14,20.7,21.1,33.4c5,9,7.2,16,11,25
	c6.4,15.2-20.6,22.9-27.1,17.9C81.2,231.4,85.9,227.7,84.1,217.9z"/>
<path class="st2" d="M84.1,217.9c-4.5-8.9-14.3-72.8,3.9-53.9c10.4,10.8,14,20.7,21.1,33.4c5,9,7.2,16,11,25
	c6.4,15.2-20.6,22.9-27.1,17.9C81.2,231.4,85.9,227.7,84.1,217.9z"/>
<ellipse transform="matrix(0.9691 -0.2465 0.2465 0.9691 -19.3081 59.1705)" class="st5" cx="226.7" cy="106.7" rx="11" ry="17"/>
<ellipse transform="matrix(0.9691 -0.2465 0.2465 0.9691 -19.3081 59.1705)" class="st2" cx="226.7" cy="106.7" rx="11" ry="17"/>
<path class="st9" d="M235.9,130.4c-1.6-13.9,1.1-21.9-14.5-35c-20.5-17.2-76.7,16.3-54.1,36.8c-11.2-1.2-5.3,21,4.3,15.7
	c2.2-1.2,1.8-3.1,2.7,1.6c4.6,22.4,7,41.4,7.3,55.7c0.1,6.3,9.6,10.9,19.5,12c2.7,0.3,7.2,13.7,9.2,12.2c0.7-0.5,3.2-12.8,5.1-13.5
	c3.1-1.2,5.8-3.3,7.6-6.1c1.5-2.6-1-23.1-0.5-24.3c0.3-0.8,6.6-0.6,14-6c10-7.2,9.5-19.7,7.4-28.8
	C241.6,140.4,236.7,136.5,235.9,130.4z"/>
<path class="st2" d="M235.9,130.4c-1.6-13.9,1.1-21.9-14.5-35c-20.5-17.2-76.7,16.3-54.1,36.8c-11.2-1.2-5.3,21,4.3,15.7
	c2.2-1.2,1.8-3.1,2.7,1.6c4.6,22.4,7,41.4,7.3,55.7c0.1,6.3,9.6,10.9,19.5,12c2.7,0.3,7.2,13.7,9.2,12.2c0.7-0.5,3.2-12.8,5.1-13.5
	c3.1-1.2,5.8-3.3,7.6-6.1c1.5-2.6-1-23.1-0.5-24.3c0.3-0.8,6.6-0.6,14-6c10-7.2,9.5-19.7,7.4-28.8
	C241.6,140.4,236.7,136.5,235.9,130.4z"/>
<path class="st2" d="M224.5,184.8c-4.8,0.7-9.8,0.5-14.5-0.6"/>
<path class="st10" d="M210.5,101.3c-13.4,2.7-12.5,10.3-27.7,11.1c-2.2,1.9-3,4.8-2.2,7.5c1.9,6.6,10.2,20,8.8,20.1
	c-0.5,0.1-11.2,3.7-11.5,2.8c-2.8-9.9-9.2-12.4-12.5-10.6c-1.7,0.9-6.7-13.2-6-19.1c2.2-17.6,48.2-50.7,64.8-38.3
	C238.9,85.8,224.9,98.4,210.5,101.3z"/>
<path class="st2" d="M210.5,101.3c-13.4,2.7-12.5,10.3-27.7,11.1c-2.2,1.9-3,4.8-2.2,7.5c1.9,6.6,10.2,20,8.8,20.1
	c-0.5,0.1-11.2,3.7-11.5,2.8c-2.8-9.9-9.2-12.4-12.5-10.6c-1.7,0.9-6.7-13.2-6-19.1c2.2-17.6,48.2-50.7,64.8-38.3
	C238.9,85.8,224.9,98.4,210.5,101.3z"/>
<path class="st2" d="M167.6,137.5c1.7-0.1,4,1,4.2,2.9"/>
<path class="st12" d="M212.4,116.5c-1.6,0-8.9,2.9-9.5,3.6"/>
<path class="st12" d="M223.6,115.5c2.3-0.1,4.6,0,6.9,0.3h0.2"/>
<path class="st2" d="M224.4,234.3c1.3-1.6,3.1-3.2,4.1-6.3c2.4-7.2,3.4-15.2,1.1-22.3c-0.9-2.9-2.5-6.5-4.5-8.5
	c-0.8-0.8-1.1-1.3-1.9-1.5 M180.9,195c-3.3,2.3-9.1,14.4-5.8,20c4,6.7,20.4,24.9,24.6,23.1"/>
<path class="st2" d="M229.6,205.8c6.1,0.3,55.1,15,58.5,24.9c0.8,2.4,4.8,5.6,5.7,9.1c6.1,22.9,3.1,47.6,5.1,66.1
	c0.2,2.4-0.3,1.6-0.1,3.8c15.3,2.4,13.2,5.1,21.3,10.5"/>
<path class="st2" d="M298.1,309.3c-2.8-1-9.4,0.5-12.2,1.2"/>
<path class="st2" d="M298.9,312c-4.4,1.8-5.7,1.9-9.5,5"/>
<path class="st2" d="M224.3,234.4c-1-2.3-4.6-12.5-6.6-15"/>
<path class="st2" d="M199.6,237.3c0-0.1-0.4-16,0.6-16.7"/>
<path class="st2" d="M278.7,419.6c-0.1-0.7-0.1-1.3-0.1-2c1.8-22.5-2.9-107.9-4.9-137.4c1.9-3.9,3.5-8,4.8-12.1"/>
<path class="st2" d="M270.8,277c-0.7-5.8-1.1-6.5-0.8-12.6"/>
<path class="st2" d="M322.7,319.9c2.7,3.7,4,8.2,3.1,15.4c-1.2,9.5-16.7,16.6-28.4,15.2c-4-0.5-12.2-2.1-21.8-15"/>
<path class="st2" d="M286.2,233.4c-5.4,4.7-10.6,13.8-12.7,20.5"/>
<path class="st2" d="M133.4,426.9c-0.8-12.5-0.7-45.7,0.5-57"/>
<path class="st1" d="M326.5,274.9c3-7.2,0.1-10.6-6.8-10.3c-3.2,0.1-14,0.9-17.1,1.3c-7.6,1-9.8,0.3-12.3,6
	c-6.1,14.2-13.5,47.4-16.7,54.9c-1,2.5-1.8,8.2,5.4,9c3.9,0.4,24.8,1.5,26.5-1.5C313.5,319.8,319.1,293,326.5,274.9z"/>
<path class="st2" d="M326.5,274.9c3-7.2,0.1-10.6-6.8-10.3c-3.2,0.1-14,0.9-17.1,1.3c-7.6,1-9.8,0.3-12.3,6
	c-6.1,14.2-13.5,47.4-16.7,54.9c-1,2.5-1.8,8.2,5.4,9c3.9,0.4,24.8,1.5,26.5-1.5C313.5,319.8,319.1,293,326.5,274.9z"/>
<path class="st9" d="M314.1,305.3c-10.1-7.7-17.4-13.2-20.2-15.9c-4.2-4-7.6-10.8-10.1-9.1c-2.4,1.6-2,2.2,0.5,8.5
	c1.7,4.1,4.2,7.7,7.5,10.6c5.4,5.2,5.7,6.1,2.7,4.3c-1.7-1.1-4.7-4.5-7.2-7.5c-0.8-1-2.1-4.4-3-5.2c-4-3.3-7.2,0.7-0.7,12.3
	c1.3,2.4,6.9,9.3,7.7,10.4c-1.2,0.1-5.8-5.3-8.4-9.1c-2.3-3.4-4.2-3.8-5.4-2.5c-1,1-1.2,2.5-0.6,3.7c1.1,2,1.7,5.1,5,8.1
	c1.9,1.7,5.2,5.1,4.9,5.6s-2.4-2.5-5.2-4.7c-0.9-0.8-3-3.9-3.7-3.7c-6.1,1.6,2.1,11.2,4.6,12.8c4.5,2.7,9.1,11.4,15.1,14.7
	c7,3.9,14.9,4.7,19.6-0.1c14.1-14.2,0.9-15.6,6.3-31.4c1.5-4.2,1.5-7.2,4.1-11.1s-1.8-7.6-5.9-3.6
	C321.3,292.6,314.5,305.1,314.1,305.3z"/>
<path class="st2" d="M314.1,305.3c-10.1-7.7-17.4-13.2-20.2-15.9c-4.2-4-7.6-10.8-10.1-9.1c-2.4,1.6-2,2.2,0.5,8.5
	c1.7,4.1,4.2,7.7,7.5,10.6c5.4,5.2,5.7,6.1,2.7,4.3c-1.7-1.1-4.7-4.5-7.2-7.5c-0.8-1-2.1-4.4-3-5.2c-4-3.3-7.2,0.7-0.7,12.3
	c1.3,2.4,6.9,9.3,7.7,10.4c-1.2,0.1-5.8-5.3-8.4-9.1c-2.3-3.4-4.2-3.8-5.4-2.5c-1,1-1.2,2.5-0.6,3.7c1.1,2,1.7,5.1,5,8.1
	c1.9,1.7,5.2,5.1,4.9,5.6s-2.4-2.5-5.2-4.7c-0.9-0.8-3-3.9-3.7-3.7c-6.1,1.6,2.1,11.2,4.6,12.8c4.5,2.7,9.1,11.4,15.1,14.7
	c7,3.9,14.9,4.7,19.6-0.1c14.1-14.2,0.9-15.6,6.3-31.4c1.5-4.2,1.5-7.2,4.1-11.1s-1.8-7.6-5.9-3.6
	C321.3,292.6,314.5,305.1,314.1,305.3z"/>
<path class="st13" d="M307.9,268.5c-3.9,0.4-6.6,0.6-8.6,0.9c-5.2,0.7-6.2,4.6-7.4,7.7c-0.8,2.1-0.5,1.4-1.1,3.1"/>
<path class="st2" d="M307.6,308.2c0.9,1.5,1.2,3.4-1,3.4"/>
<path class="st2" d="M301,314.5c0.2,1.8,0.1,3.1-1.8,3"/>
<line class="st2" x1="295.1" y1="321.9" x2="294.4" y2="322.8"/>
<path class="st14" d="M302.2,274.6L302.2,274.6c-1.9-0.1-3.7,1-4.4,2.8l-1.6,4.7c-0.6,1.3,0.1,2.8,1.4,3.4c0.3,0.1,0.5,0.2,0.8,0.2
	l0,0c1.9,0.1,3.7-1,4.4-2.8l1.6-4.7c0.6-1.3-0.1-2.9-1.4-3.4C302.7,274.7,302.4,274.6,302.2,274.6"/>
<path class="st2" d="M230.1,140.5c-2-7.2-6.7-4.9-8.8,0"/>
<path class="st1" d="M213.5,137.4c-0.1,0.6-0.5,0.6-1.1-1.9c-0.3-1.1-1.2-5.2-0.6-4.8S213.7,136.6,213.5,137.4z"/>
<path class="st2" d="M213.5,137.4c-0.1,0.6-0.5,0.6-1.1-1.9c-0.3-1.1-1.2-5.2-0.6-4.8S213.7,136.6,213.5,137.4z"/>
<path class="st1" d="M229.7,135.9c-0.1,0.6-0.5,0.6-1.1-1.8c-0.3-1.1-1.2-5.1-0.6-4.7S229.9,135.1,229.7,135.9z"/>
<path class="st2" d="M229.7,135.9c-0.1,0.6-0.5,0.6-1.1-1.8c-0.3-1.1-1.2-5.1-0.6-4.7S229.9,135.1,229.7,135.9z"/>
<path class="st2" d="M209.6,228.9c8.2,15.1,1.5,34.1,5.9,43.6c7.4,16.1-3,42.1,4.6,60.8c6.5,16.1-9.9,26.6-0.3,61.3
	c2,7.2,2.7,14.1-0.4,27.5"/>
<path class="st2" d="M218.9,156.9c1.5,2.8,3.2,2.6,5.8,2.6"/>
<path class="st15" d="M116,331.6c-3.7,0.1-12-7.3-17.3-8.4c-1.6-7.9-4-19.2-4.4-27.4c-0.3-6.4-3-22-5.8-32.1
	c-2.2-7.8-9.5-33.2-10.5-41.3c-1.4-11.7,1.9,2.8,5-1.2c5.9-7.6,6.2,11,9.8-2c0.7-2.4,6.3,5.5,7.3,8.4c3.9,11.1,20.4,85.6,18.6,99.6
	C118.6,328.3,116.6,331.6,116,331.6z"/>
<path class="st2" d="M116,331.6c-3.7,0.1-12-7.3-17.3-8.4c-1.6-7.9-4-19.2-4.4-27.4c-0.3-6.4-3-22-5.8-32.1
	c-2.2-7.8-9.5-33.2-10.5-41.3c-1.4-11.7,1.9,2.8,5-1.2c5.9-7.6,6.2,11,9.8-2c0.7-2.4,6.3,5.5,7.3,8.4c3.9,11.1,20.4,85.6,18.6,99.6
	C118.6,328.3,116.6,331.6,116,331.6z"/>
<path class="st2" d="M185,112.2c-1.8,0.1-7.8,0.4-12-2.2"/>
<path class="st15" d="M115.5,323.1c-1.9-7.9-1.5-19.5-5.1-30c-1-3-14.2-73.8-11.2-71.7c2.3,1.6,4.6,3.8,5.5,3s3.1-4.8,3.7-5.1
	c1-0.5,4.2,1.8,5.2,2.7c1.9,1.9,3.2-3.7,4.9-4.7c0.7-0.4,3.7,1.2,5.1,3c1,1.2,2.8-5.8,3.8-5.8c2,0.8,3.9,2,5.4,3.6
	c0.8,1,2.3-5.1,3.2-5.5c0.7-0.3,3.5,1.3,4.8,3c2.5,3.4,4-4.9,5.3-5c1-0.1,4.1,2.2,6,3.5c1.4,0.9,3.3-5.5,4.6-5.7s4.8,3.6,6,4.1
	s4.9-5,4.9-5c1.2-0.4,1.9,1.8,4.1,3.4c1.2,0.9,6.2-5.7,6.4-4.2c1.7,8.1,3,16.3,3.9,24.6c1.3,12.6,17.9,79.8,13.6,84.1
	c-3.2,3.2-30.7,13.1-35.8,13.7c-12.3,1.4-23,1.7-35.2,3.4C109.2,334.4,119.5,328,115.5,323.1z"/>
<path class="st2" d="M115.5,323.1c-1.9-7.9-1.5-19.5-5.1-30c-1-3-14.2-73.8-11.2-71.7c2.3,1.6,4.6,3.8,5.5,3s3.1-4.8,3.7-5.1
	c1-0.5,4.2,1.8,5.2,2.7c1.9,1.9,3.2-3.7,4.9-4.7c0.7-0.4,3.7,1.2,5.1,3c1,1.2,2.8-5.8,3.8-5.8c2,0.8,3.9,2,5.4,3.6
	c0.8,1,2.3-5.1,3.2-5.5c0.7-0.3,3.5,1.3,4.8,3c2.5,3.4,4-4.9,5.3-5c1-0.1,4.1,2.2,6,3.5c1.4,0.9,3.3-5.5,4.6-5.7s4.8,3.6,6,4.1
	s4.9-5,4.9-5c1.2-0.4,1.9,1.8,4.1,3.4c1.2,0.9,6.2-5.7,6.4-4.2c1.7,8.1,3,16.3,3.9,24.6c1.3,12.6,17.9,79.8,13.6,84.1
	c-3.2,3.2-30.7,13.1-35.8,13.7c-12.3,1.4-23,1.7-35.2,3.4C109.2,334.4,119.5,328,115.5,323.1z"/>
<path class="st2" d="M177.7,232.2c-2.6,3-4.6,7-8.1,10.1c-0.9,0.8-3.3,3.7-4.3,4.1"/>
<path class="st2" d="M123.1,287.7c11.4,5.4,31.9,12.7,44.4,7.5l0.8-0.2"/>
<path class="st2" d="M99.5,321.1c1.5-0.6,7.7-4.6,8.8-6.1c0.3-0.4,7.6,9.7,7.6,14.4"/>
<path class="st2" d="M108.3,315c1.2-4.3,0.8-21.1,0.8-27"/>
<path class="st0" d="M111.8,330.2c11.5-2.1,33.6-12.8,50.3-17.8c2.7-0.8,5.6-0.3,7.9,1.4c2.4-0.6,6.9,8.8,7,15.9
	c0.2,11.8,8.4,14-4.5,20.6c-14,7.4-28.5,13.9-43.4,19.5c-7.1,2.8-20,0.2-28.2-0.9c-12.4-1.5-14.1-21.1-14.4-28.2
	c-0.3-6.9,1.2-11.7,3.8-26.9c0.4-2.3,4.5-20.9,4.4-17c-0.1,4.5,1.7,24.6,6.1,26.7C104.1,325,111,329.7,111.8,330.2z"/>
<path class="st2" d="M111.8,330.2c11.5-2.1,33.6-12.8,50.3-17.8c2.7-0.8,5.6-0.3,7.9,1.4c2.4-0.6,6.9,8.8,7,15.9
	c0.2,11.8,8.4,14-4.5,20.6c-14,7.4-28.5,13.9-43.4,19.5c-7.1,2.8-20,0.2-28.2-0.9c-12.4-1.5-14.1-21.1-14.4-28.2
	c-0.3-6.9,1.2-11.7,3.8-26.9c0.4-2.3,4.5-20.9,4.4-17c-0.1,4.5,1.7,24.6,6.1,26.7C104.1,325,111,329.7,111.8,330.2z"/>
<path class="st2" d="M113.7,329.8c0,0-10.3,2.6-11.6,3c-0.3,0.1-0.5,0.1-0.8,0.2"/>
<path class="st2" d="M107.9,328.4c-3.2-0.5-6.5-0.7-9.8-0.6"/>
<path class="st9" d="M190.8,303.9c2.1-0.8,4.9-2.8,4.4-4.6c-0.1-0.6-1.2-3.5-0.9-3.5c3.9,0,9-0.2,8.4,4.8c0.6,1.5,3.1,3.2,3.4,4.1
	c1,4-1,4,1.8,8.5c1,2.2,1.2,4.6,0.7,6.9c-0.6,3-0.9,6-0.9,9c0.1,2.7-3.6,6-7.4,7.8c-4.9,2.4-16.5,4.3-19.6,6.3
	c-1.5,0.9-4.9,1.4-6.7,1.4c-5.2,0.3-10.7-9.7-12.2-22c-0.3-2.5,0.6-5,2.3-6.9c1.1-1.1,5.4-2.3,7.3-2.9c4-2.1,6-9,8.1-12.9
	c2-4.1,3.1-8.6,3.3-13.1c0-2.5,2.7-2.5,4.4-1.5c2.1,1.3,2.3,8.5,1.4,12.2C187.7,300.4,190.3,304,190.8,303.9z"/>
<path class="st2" d="M190.8,303.9c2.1-0.8,4.9-2.8,4.4-4.6c-0.1-0.6-1.2-3.5-0.9-3.5c3.9,0,9-0.2,8.4,4.8c0.6,1.5,3.1,3.2,3.4,4.1
	c1,4-1,4,1.8,8.5c1,2.2,1.2,4.6,0.7,6.9c-0.6,3-0.9,6-0.9,9c0.1,2.7-3.6,6-7.4,7.8c-4.9,2.4-16.5,4.3-19.6,6.3
	c-1.5,0.9-4.9,1.4-6.7,1.4c-5.2,0.3-10.7-9.7-12.2-22c-0.3-2.5,0.6-5,2.3-6.9c1.1-1.1,5.4-2.3,7.3-2.9c4-2.1,6-9,8.1-12.9
	c2-4.1,3.1-8.6,3.3-13.1c0-2.5,2.7-2.5,4.4-1.5c2.1,1.3,2.3,8.5,1.4,12.2C187.7,300.4,190.3,304,190.8,303.9z"/>
<path class="st2" d="M199,309c0.1,0.9,1.4,2.3,1.4,2.5"/>
<path class="st2" d="M201.8,316.9c0.1,0.6,0.3,1.2,0.8,1.7"/>
<path class="st2" d="M202.1,325c0,0.2,0.1,0.3,0.2,0.5"/>
<path class="st2" d="M188,305.5c2.7-0.6,5.2-1.9,7.2-3.8"/>
<path class="st1" d="M221.6,248.4c0.9,0,1.7,1.1,1.7,2.4s-0.8,2.4-1.7,2.4s-1.7-1.1-1.7-2.4S220.7,248.4,221.6,248.4"/>
<path class="st1" d="M223.4,277.7c0.9-0.2,1.9,0.6,2.2,1.9s-0.2,2.5-1,2.7s-1.9-0.6-2.2-1.9S222.5,277.9,223.4,277.7"/>
<path class="st1" d="M224.8,310.4c0.9,0,1.6,1.1,1.6,2.5s-0.8,2.4-1.8,2.3s-1.7-1.2-1.6-2.5S223.9,310.3,224.8,310.4"/>
<path class="st1" d="M228.4,340.8c0.9,0.1,1.6,1.2,1.5,2.5s-0.9,2.3-1.8,2.3s-1.6-1.2-1.5-2.5S227.5,340.7,228.4,340.8"/>
<path class="st1" d="M223.7,375.3c0.9,0.1,1.6,1.2,1.5,2.5s-0.9,2.4-1.8,2.3s-1.6-1.2-1.5-2.5S222.7,375.3,223.7,375.3"/>
<path class="st1" d="M227.9,411.1c0.9,0.1,1.6,1.2,1.5,2.5s-0.9,2.4-1.8,2.3s-1.6-1.2-1.5-2.5S227,411.1,227.9,411.1"/>
<path class="st2" d="M97.3,181.4c-2.4,2.1-11,14.9-5.5,16.9c1.9,0.7,7-8,8.2-9.3"/>
<path class="st2" d="M106.5,196.7c-1.3,1.4-11.7,15.6-5.7,15.6c2.4,0,5.8-4.9,7.3-7"/>
<polygon class="st1" points="312.1,389.1 358.2,358.2 320,358.2 273.8,389.6 "/>
<polygon class="st2" points="312.1,389.1 358.2,358.2 320,358.2 273.8,389.6 "/>
<path class="st10" d="M308.3,422.5c-1.3,4.3,1.4,6.2,5.2,6.5c7.4,0.4,10.5,1.6,10.4-7.3v-45.1c0.2-1.3-2.9-4.8-7.1-3.3
	c-5.1,1.8-8.1,5.1-8.6,9.3V422.5z"/>
<path class="st2" d="M308.3,422.5v-39.9c0.5-4.2,3.5-7.6,8.6-9.3c4.2-1.4,7.2,2,7.1,3.3"/>
<line class="st2" x1="323.9" y1="424.2" x2="323.9" y2="376.7"/>
<path class="st10" d="M319.9,358.8l-6-13.4l33.6-0.3c8.2-1.9,16.1,10.6,9.1,13.9L319.9,358.8z"/>
<path class="st2" d="M319.9,358.8l-6-13.4l33.6-0.3c8.2-1.9,16.1,10.6,9.1,13.9L319.9,358.8z"/>
<path class="st0" d="M351.4,349.3h-27.1c2.3-7.3,13.5-14,21.3-14l27.1,0.6C365.2,336.7,353.8,342.3,351.4,349.3z"/>
<path class="st2" d="M351.4,349.3h-27.1c2.3-7.3,13.5-14,21.3-14l27.1,0.6C365.2,336.7,353.8,342.3,351.4,349.3z"/>
<path class="st10" d="M320.2,359.1l-39.1,25.5c-3.3,3-14.9,9.2-13.7-0.8c0.5-4.5,19-23.1,20.8-24.3c5.1-5.6,8.1-10.4,21.3-13.8
	C318.9,343.2,322.9,352.7,320.2,359.1z"/>
<path class="st2" d="M320.2,359.1l-39.1,25.5c-3.3,3-14.9,9.2-13.7-0.8c0.5-4.5,19-23.1,20.8-24.3c5.1-5.6,8.1-10.4,21.3-13.8
	C318.9,343.2,322.9,352.7,320.2,359.1z"/>
<path class="st2" d="M311.8,303.5c0.5,0.7,3.1,3.4,3.3,4"/>
<path class="st2" d="M235.3,283.8c0.2-2.3,0.1-4.1,0.1-6.4c3.7,0,26.9,0.1,28.7,1.5c1.4,1.1,1.4,2.3,1.3,3.7"/>
</svg>
