<?xml version="1.0" encoding="utf-8"?>
<!-- Generator: Adobe Illustrator 26.3.1, SVG Export Plug-In . SVG Version: 6.00 Build 0)  -->
<svg version="1.1" id="Layer_1" xmlns="http://www.w3.org/2000/svg" xmlns:xlink="http://www.w3.org/1999/xlink" x="0px" y="0px"
	 viewBox="0 0 450 450" style="enable-background:new 0 0 450 450;" xml:space="preserve">
<style type="text/css">
	.st0{fill-rule:evenodd;clip-rule:evenodd;fill:#D175BF;}
	.st1{fill-rule:evenodd;clip-rule:evenodd;fill:#FF6600;}
	.st2{fill:none;stroke:#000000;stroke-width:2.83;stroke-linecap:round;stroke-linejoin:round;}
	.st3{fill-rule:evenodd;clip-rule:evenodd;fill:#FAC384;}
	.st4{fill-rule:evenodd;clip-rule:evenodd;}
	.st5{fill:none;stroke:#FF6600;stroke-width:3.4;stroke-linecap:round;stroke-linejoin:round;}
	.st6{fill-rule:evenodd;clip-rule:evenodd;fill:#FF99CC;}
	.st7{fill-rule:evenodd;clip-rule:evenodd;fill:#FEFEFE;}
	.st8{fill-rule:evenodd;clip-rule:evenodd;fill:#FFCC29;}
	.st9{fill:none;stroke:#FFCC00;stroke-width:3.4;stroke-linecap:round;stroke-linejoin:round;}
</style>
<path class="st0" d="M213.1,386c4.1,7.4,42,9.3,51.5,11.3c8.7,1.9,41.6,1.4,47.9-3.5c0.8-0.6,14.6-8.7,15-8.7
	c2.1,2.9,15.8,42,12.9,43.3c-13.2,5.7-50.4-4.3-65.4-1.4c-5.9,1.1-32.4,2.5-39.5,2.5c-3.7,0-36.6-0.2-36.8,0.2
	C200,428.1,202.6,395.2,213.1,386"/>
<path class="st1" d="M247.8,113.9c-2-2.9-8.7-11.9-12.3-10.4c-18.1,7.4-7.9,18.9-26,26.9c-16.3,7.1,3.7,20.2-21.3,27.1
	c-18.6,5.1-3.6,22.3-17.9,32.4c-9.5,6.7,2.9,14.4,7.4,19.5c7.2,8,38,21.6,49.7,12.1c20-16.3,29.7-41.6,33.9-64.3
	c3.8-20.5,6.7-31.5-7.7-44.9C245.1,104.4,249.5,116.2,247.8,113.9z"/>
<path class="st2" d="M247.8,113.9c-2-2.9-8.7-11.9-12.3-10.4c-18.1,7.4-7.9,18.9-26,26.9c-16.3,7.1,3.7,20.2-21.3,27.1
	c-18.6,5.1-3.6,22.3-17.9,32.4c-9.5,6.7,2.9,14.4,7.4,19.5c7.2,8,38,21.6,49.7,12.1c20-16.3,29.7-41.6,33.9-64.3
	c3.8-20.5,6.7-31.5-7.7-44.9C245.1,104.4,249.5,116.2,247.8,113.9z"/>
<path class="st3" d="M213.1,385.4c-4.1,6.4,56.9,11.9,59.8,11.9c14.2-0.2,35,0.4,47.5-7.3c12.9-8-6.9-29.2-11-45.8
	c-1.2-4.8-12.3-0.7-18-0.8c-16.8-0.3-46.2,7.4-61.4,4.6c-3.6-0.7-14.4-2.6-15.5-4C217.3,359.9,213.1,375.5,213.1,385.4z"/>
<path class="st2" d="M213.1,385.4c-4.1,6.4,56.9,11.9,59.8,11.9c14.2-0.2,35,0.4,47.5-7.3c12.9-8-6.9-29.2-11-45.8
	c-1.2-4.8-12.3-0.7-18-0.8c-16.8-0.3-46.2,7.4-61.4,4.6c-3.6-0.7-14.4-2.6-15.5-4C217.3,359.9,213.1,375.5,213.1,385.4z"/>
<path class="st3" d="M175.6,195.2c-11.2-7.2-46.1-38.9-47.2-42.9c-5.4-20.4-18-48.6-26.2-70.3c-1.7-4.5,10.2-13.3,6.4-26.2
	c-9.9,11.6-30.1,26.1-25.6,42.1c0.4,1.4,6.3,26.7,10.3,39.4c4.8,15.5,9.8,32.7,15.5,38.8c15.4,16.6,43.1,50.2,56,55.3
	C165.7,225.7,186.7,203,175.6,195.2z"/>
<path class="st2" d="M175.6,195.2c-11.2-7.2-46.1-38.9-47.2-42.9c-5.4-20.4-18-48.6-26.2-70.3c-1.7-4.5,10.2-13.3,6.4-26.2
	c-9.9,11.6-30.1,26.1-25.6,42.1c0.4,1.4,6.3,26.7,10.3,39.4c4.8,15.5,9.8,32.7,15.5,38.8c15.4,16.6,43.1,50.2,56,55.3
	C165.7,225.7,186.7,203,175.6,195.2z"/>
<path class="st4" d="M105.6,23.4l5.4,16.1c1.3,4,0.2,11.3-2.5,16.3l-26.9,49.6c-2.7,5-6,5.9-7.4,1.9l-5.4-16.1
	c-1.3-4-0.2-11.3,2.5-16.3l26.9-49.6C100.9,20.3,104.2,19.4,105.6,23.4z"/>
<path class="st2" d="M105.6,23.4l5.4,16.1c1.3,4,0.2,11.3-2.5,16.3l-26.9,49.6c-2.7,5-6,5.9-7.4,1.9l-5.4-16.1
	c-1.3-4-0.2-11.3,2.5-16.3l26.9-49.6C100.9,20.3,104.2,19.4,105.6,23.4z"/>
<path class="st3" d="M92.3,34c-0.9-1.1-6.9-2.2-7.8,2.2c-0.2,1.2-1.6,5.5-2.5,5.9c-4.4,1.8-1.1,4.2-5.1,6c-2.8,1.2-1.8,7-3,7.5
	c-4.5,1.8-3.7,13.4-4.6,17.4c-1,4.5,5.1,8.5,8.1,11.3c0.8,0.9,2,1.5,3.2,1.6c3,0.6,3.4-3.8,3.4-3.8c6.8,0.3,4.5-5.7,4.8-5.7
	c4.7-1,3.9-8.2,3.9-8.2c7.6-6-2.2-10.1-1.9-15c0.4-6.5-4-9.9-0.4-14.7C90.8,38,92.7,34.4,92.3,34z"/>
<path class="st2" d="M92.3,34c-0.9-1.1-6.9-2.2-7.8,2.2c-0.2,1.2-1.6,5.5-2.5,5.9c-4.4,1.8-1.1,4.2-5.1,6c-2.8,1.2-1.8,7-3,7.5
	c-4.5,1.8-3.7,13.4-4.6,17.4c-1,4.5,5.1,8.5,8.1,11.3c0.8,0.9,2,1.5,3.2,1.6c3,0.6,3.4-3.8,3.4-3.8c6.8,0.3,4.5-5.7,4.8-5.7
	c4.7-1,3.9-8.2,3.9-8.2c7.6-6-2.2-10.1-1.9-15c0.4-6.5-4-9.9-0.4-14.7C90.8,38,92.7,34.4,92.3,34z"/>
<path class="st3" d="M234.8,189.5c-20.4-2.8-21.7-16.7-19.9-26.1c-0.2-0.1-0.5-0.2-1.1-0.6c-0.2,0-0.4,0-0.6,0
	c-1.4,0.6-3.7,0.5-3.9-1.3c-0.5-5.6,4.5-4.2,3.5-7.9c-0.7-2.5,1.1-4.8,3.1-3.9c2.8,1.2,1.4,3.4,3,2.1c3.8-8.4,4.3-5.1,3.4-8.7
	c-2.6-11,4.6-10.9,6.2-8.2c0.9,1.5,4.6-24.7,13.9-31.8c24.9-8,37.6-9.8,50.5,17.2c13.6,28.5-2,51.7-19,76.9
	c-1.4,2.1-3.2,20-3.2,22.3c0,53.2-33.7,45.2-40.3-5.7C230.4,213,234.6,190.2,234.8,189.5z"/>
<path class="st2" d="M234.8,189.5c-20.4-2.8-21.7-16.7-19.9-26.1c-0.2-0.1-0.5-0.2-1.1-0.6c-0.2,0-0.4,0-0.6,0
	c-1.4,0.6-3.7,0.5-3.9-1.3c-0.5-5.6,4.5-4.2,3.5-7.9c-0.7-2.5,1.1-4.8,3.1-3.9c2.8,1.2,1.4,3.4,3,2.1c3.8-8.4,4.3-5.1,3.4-8.7
	c-2.6-11,4.6-10.9,6.2-8.2c0.9,1.5,4.6-24.7,13.9-31.8c24.9-8,37.6-9.8,50.5,17.2c13.6,28.5-2,51.7-19,76.9
	c-1.4,2.1-3.2,20-3.2,22.3c0,53.2-33.7,45.2-40.3-5.7C230.4,213,234.6,190.2,234.8,189.5z"/>
<path class="st1" d="M247.8,113.9c6.1,1.9,12.8,3.4,13,9.6c0.6,17.7,0.9,15.3,11.7,25.5c10.1,9.5-9.5,12.4,0.8,28.5
	c11.1,17.4-17,15.7,0.4,40.6c2.8,4,81.7-9.9,81.7-9.9c16.5-4.9,18.6-26.4,5.8-36.7c-4.8-3.9-10.2-6.7-9.5-21.3
	c0.9-18.8-19-8.8-21.4-27.9c-2.2-17.8-18.2-5.7-22.9-16.8c-9-21.2-17.7-8.1-28.3-13.7C239.9,71.1,220.4,105.3,247.8,113.9z"/>
<path class="st2" d="M247.8,113.9c6.1,1.9,12.8,3.4,13,9.6c0.6,17.7,0.9,15.3,11.7,25.5c10.1,9.5-9.5,12.4,0.8,28.5
	c11.1,17.4-17,15.7,0.4,40.6c2.8,4,81.7-9.9,81.7-9.9c16.5-4.9,18.6-26.4,5.8-36.7c-4.8-3.9-10.2-6.7-9.5-21.3
	c0.9-18.8-19-8.8-21.4-27.9c-2.2-17.8-18.2-5.7-22.9-16.8c-9-21.2-17.7-8.1-28.3-13.7C239.9,71.1,220.4,105.3,247.8,113.9z"/>
<path class="st2" d="M233.8,189.3c3.5-0.3,10,0.5,18.5-6.2l0.2-0.1"/>
<path class="st4" d="M233.5,136.8c0.1,0.6,0.4,0.7,1.5-1.8c0.5-1.2,2.2-5.3,1.5-5C235.6,130.4,233.4,135.9,233.5,136.8z"/>
<path class="st2" d="M233.5,136.8c0.1,0.6,0.4,0.7,1.5-1.8c0.5-1.2,2.2-5.3,1.5-5C235.6,130.4,233.4,135.9,233.5,136.8z"/>
<path class="st5" d="M249.1,128.4c-1-1.2-0.7-2.5-2.1-3.8c-3.1-2.6-8.1,2.1-8.9-2.7"/>
<path class="st0" d="M342.1,297.2c3.5-1.9-19.9-69.9-33.1-78c-9-5.5-34.9-7.3-37.2-4.2s1.9,37-14.6,30.3c-7.5-3-9.9-7.8-14.4-14.1
	c-5.2-7.4-11.5-16.6-12.3-17.5c-5.7-5.9-18.6-2.4-29.3-8.3c-2.2-1.2-33.5-21.7-34.7-19.9c-5.3,8.1-14.9,29.1-20,38.8
	c-6.6,12.6-4.8,7.5,11.1,19.5c5.4,4.1,23.9,16.8,25.1,21.8c2.3,10.2,9.3,30,10.4,45.7c0.2,2.5,1.5,16.2,1.5,17.9
	c-0.2,4.8,9.2,12.4,36.1,17.2c32.3,5.8,60.1,4.9,91.5-5c3.2-1-8.9-27-6.4-28.7c1.9-1.3,4.5-2.1,6.2-7.9
	C322.6,303.3,328.4,304.6,342.1,297.2z"/>
<path class="st2" d="M342.1,297.2c3.5-1.9-19.9-69.9-33.1-78c-9-5.5-34.9-7.3-37.2-4.2s1.9,37-14.6,30.3c-7.5-3-9.9-7.8-14.4-14.1
	c-5.2-7.4-11.5-16.6-12.3-17.5c-5.7-5.9-18.6-2.4-29.3-8.3c-2.2-1.2-33.5-21.7-34.7-19.9c-5.3,8.1-14.9,29.1-20,38.8
	c-6.6,12.6-4.8,7.5,11.1,19.5c5.4,4.1,23.9,16.8,25.1,21.8c2.3,10.2,9.3,30,10.4,45.7c0.2,2.5,1.5,16.2,1.5,17.9
	c-0.2,4.8,9.2,12.4,36.1,17.2c32.3,5.8,60.1,4.9,91.5-5c3.2-1-8.9-27-6.4-28.7c1.9-1.3,4.5-2.1,6.2-7.9
	C322.6,303.3,328.4,304.6,342.1,297.2z"/>
<path class="st2" d="M213.1,385.4c-10.5,9.3-13,42.1-14.4,43.7"/>
<path class="st2" d="M324.2,377.5c8.2,16.5,14.8,41.9,17.5,49.7"/>
<path class="st2" d="M212.7,300.4c3.5,8.7,19,16.5,28.8,15.9"/>
<path class="st2" d="M304.1,316.5c7.3,0,13.7-2.5,17.4-10.1c1.8-3.7,1.1-7.8-0.1-12.8"/>
<path class="st2" d="M281.2,372.8c0,0.2,0.7,9.4,2.4,6.6c0.1-0.1,0.1-0.3,0.1-0.5"/>
<path class="st4" d="M274.7,122.6c0.5,2.9,0.4,5.7-2.2,7.6c-1.6-0.2-2.8-1.7-2.7-3.3c0-0.3,0.1-0.7,0.3-1
	c-0.9-5.6-11.1-42.3-12.4-42.7l7-2.4L274.7,122.6z"/>
<path class="st2" d="M274.7,122.6c0.5,2.9,0.4,5.7-2.2,7.6c-1.6-0.2-2.8-1.7-2.7-3.3c0-0.3,0.1-0.7,0.3-1
	c-0.9-5.6-11.1-42.3-12.4-42.7l7-2.4L274.7,122.6z"/>
<line class="st2" x1="247.9" y1="86.1" x2="270.5" y2="78.1"/>
<path class="st2" d="M267.2,125.1c6.3,19.8,29.4,11.2,24.1,35.5c-0.8,3.5-1.2,8.2,3.5,10.7"/>
<path class="st2" d="M289.5,124.1c5.5,6,14.8,3.4,14.8,13.4c0,10.4,11.6,6.1,16.8,13.9c6.3,9.6-3.4,12,2,23.3"/>
<path class="st2" d="M296.9,111c5.9,12.2,14.8,5.9,20.4,12.4c4.5,5.2,1.2,8.6,5.1,12.7"/>
<path class="st2" d="M333,146.4c6.5,4.1,4.8,9.4,4.1,17.2c-0.8,8.6,6.1,9,9.4,18.6"/>
<path class="st2" d="M295.5,203.3c-2.8-10.4,7.1-12.3,4.1-22.4"/>
<path class="st2" d="M190.9,187.7c4.2-5.4-3.6-14.4,14.3-19.6c3.5-1,7.1-2.9,8-5.4"/>
<path class="st2" d="M205.4,193.3c2.4-3.3,1.1-6.8,4-11c2.1-2.9,6.3-2.4,6.5-3.4"/>
<path class="st2" d="M325.8,196.8c-3.5-8.6,0.4-9.1-1-14.9"/>
<path class="st2" d="M253.7,98.9c7.8,7,21,3.6,27.7,14.6"/>
<path class="st2" d="M298.4,250c4.9,13.2,3.8,11.8,12,23.6c0.7,1,5.2,6.9,5.5,7.7"/>
<path class="st2" d="M92.7,68.3c-3.2-0.4-3.6-2.6-5.6-4.9c-4.9-5.8-3.7-4.6-5.4-12.6"/>
<path class="st2" d="M89.3,76.5c-2.4-1.3-4.9-4.5-7.8-7.2c-5.3-4.9-3.7-4.8-5-10.5l-0.1-0.4"/>
<path class="st2" d="M84.3,82c-3.8-3.8-7.6-6.6-10.1-11.8"/>
<path class="st2" d="M117.3,160.7c0.4-0.3,6.7-4.9,6.8-4.9"/>
<path class="st2" d="M204.4,206.9c19,15.7-16.3,100.6-24.4,123"/>
<path class="st2" d="M166.6,250.4c-3.7,4.4-23.4,40.3-25.1,45.2"/>
<path class="st6" d="M130.8,293.7c9.7-1.5,1.4,1.4,5.1,3.1c2.7,1.2,3.1-2.4,3.6,2.4s4.8-2.9,9,5.8c1.8,3.8,0.5-4.1,4.1,5
	c1.9,4.7,3.5-0.8,4.7,3.8c0.8,3,4.1-3.4,7,4.3c2.5,6.5,4.4-0.4,5.8,5c0.7,2.8,7.2,1.7,11.2,8.8c0.7,1.3,4.1,3.6,2.7,3.9
	c-0.9,2.6,2.1,0.8,0.6,4.1c-0.7,1.5,0.8,3.6,0,5.1s-0.2,9.5-3.6,13.5c-6.7,7.8,5.7,11.3-13.5,26c-5,3.8-6.1,2.2-12.4,2.2
	c-10.7,0-7.4-8.5-13.6-9c-10.2-0.9-0.4-3.5-9.4-6.5c-2.9-0.9,0.8-2.4-6.9-5.2c-2.4-0.9,1.9-2.1-8-5.8c-2.1-0.8,0.5-3.4-6.2-8.4
	c-1.3-1,0.7-1.2-2.9-4.3c-0.9-0.8,0.1-4.5-6.9-6.3c-5.8-1.5-5.3-4.5-4-9.4c1.5-6,4.9-2,5.3-6c0.4-3.5,7.8-0.2,7.8-9.6
	c3.7,0.2,1.3-4.4,4.1-6.5c11.6-8.3,0.5-7,13.6-13.7c0.6-0.3,2.1-2,3-2.2"/>
<path class="st2" d="M178.5,336.5c4.6,7.4,3.6,13.6,3.9,19.4"/>
<path class="st2" d="M175.9,355.7c0.7,9.8,0,9.8,0,18.8"/>
<path class="st2" d="M167.2,370.1c0,1.5-0.4,12.4-2.8,16.2"/>
<line class="st2" x1="155.5" y1="371.4" x2="148.5" y2="387.3"/>
<path class="st2" d="M113.7,324.2c-6.7,0-11.9,1.7-17.9,4.4"/>
<path class="st2" d="M123.4,313.8c-12.4,0.6-8.9,0.2-17.8,2.7c-0.2,0-0.3,0-0.5,0"/>
<path class="st2" d="M127.8,305.1c-6.6,0.2-9.8-0.2-15.3,1.2"/>
<path class="st2" d="M141,304.8c0,0-6.5-11.5-7.6-11.4"/>
<line class="st2" x1="149.4" y1="311.3" x2="149.5" y2="301.4"/>
<path class="st2" d="M155.4,314.9c0,0,2.4-6.4,2.4-7.2"/>
<line class="st2" x1="161.7" y1="321.3" x2="165.7" y2="316.1"/>
<path class="st2" d="M167.8,326.4c2.7-2,8.3-1.5,9.9-1.2"/>
<path class="st2" d="M113.2,335.1c-5.4,0.1-9.8,3.8-14.3,6.2"/>
<path class="st2" d="M120.9,341.7c-1.3,1.1-12.2,11.6-12.2,12.6"/>
<path class="st2" d="M127.8,352.1c0,0-7.8,10.8-9.3,11.1"/>
<path class="st2" d="M136.6,361.5c0,0-7.1,11.9-9.8,12.5"/>
<path class="st2" d="M146.7,363.9c-0.5,0.9-6.8,15.6-10.4,17.5"/>
<path class="st2" d="M137.1,318.2c-1.9,0.5-11.3,4.9-11.6,5.9"/>
<path class="st2" d="M142.8,325.4c-1.1,1.4-5.3,5-7.2,6.9"/>
<path class="st2" d="M151.6,333.3c0,0-7.1,10-7.2,10.6"/>
<line class="st2" x1="159.6" y1="340.1" x2="156.6" y2="349.4"/>
<path class="st2" d="M167.1,342.2c0,0,0.3,11.6-1.8,12.9"/>
<path class="st7" d="M352.7,257.9c2.2-1.1,5.2-2.9,7.9-4.5c5.2-3.1,14.1-6.7,19.8-4.1c2.4,1.1,1,3.6,0.1,6.3
	c-3.2,10.3-11.5,15.7-22,13.3c-0.3-0.2-0.7-0.5-0.9-0.8c0,2.1-0.8,5.4-1.1,8s-0.9,5.9,0.7,8.4c4.9,7.8,9.9,10.9,6.7,27.5
	c-4.5,23.6-44.2,30.5-48.1,9c-3.5-18.7,16.3-30.8,16.8-35.5c0.1-0.8-6.2-1.5-6.4-7.8c0-1.8-1.3-5.9-0.5-8.5c0.2-0.7,0.4-1.3,0.6-2
	c-7-0.4-12.5-6.4-14.5-13.2c-1.2-4.2,1.1-5.4,3.8-5.6c4.5-0.2,11.9,1,19,6.9C338.9,253.2,348.2,252.4,352.7,257.9z"/>
<path class="st2" d="M352.7,257.9c2.2-1.1,5.2-2.9,7.9-4.5c5.2-3.1,14.1-6.7,19.8-4.1c2.4,1.1,1,3.6,0.1,6.3
	c-3.2,10.3-11.5,15.7-22,13.3c-0.3-0.2-0.7-0.5-0.9-0.8c0,2.1-0.8,5.4-1.1,8s-0.9,5.9,0.7,8.4c4.9,7.8,9.9,10.9,6.7,27.5
	c-4.5,23.6-44.2,30.5-48.1,9c-3.5-18.7,16.3-30.8,16.8-35.5c0.1-0.8-6.2-1.5-6.4-7.8c0-1.8-1.3-5.9-0.5-8.5c0.2-0.7,0.4-1.3,0.6-2
	c-7-0.4-12.5-6.4-14.5-13.2c-1.2-4.2,1.1-5.4,3.8-5.6c4.5-0.2,11.9,1,19,6.9C338.9,253.2,348.2,252.4,352.7,257.9z"/>
<path class="st3" d="M358.7,323.1c1.3-0.6,1.9-5.2,2.6-6.9c0.6-1.3,2.8-7,5.3-9.6c1.4-1.4-1.9-5.3-6.1-1.3c-0.1,0-4.8,7.5-5.1,8.9
	C353.6,321.2,359.1,323,358.7,323.1z"/>
<path class="st2" d="M358.7,323.1c1.3-0.6,1.9-5.2,2.6-6.9c0.6-1.3,2.8-7,5.3-9.6c1.4-1.4-1.9-5.3-6.1-1.3c-0.1,0-4.8,7.5-5.1,8.9
	C353.6,321.2,359.1,323,358.7,323.1z"/>
<path class="st3" d="M336.7,343.6c1.9,0.5,2.6-1.2,4.3-1.9c1.1-0.4,3.2-0.4,4.2-1.1s1.7-2.6,2.7-3.3c1.2-0.8,3.6-0.4,4.6-1.3
	c0.9-0.7,1.4-2.2,2.2-2.8c0.5-0.4,2.7-0.5,3.2-0.7c2.7-1,4.9-3.4,3-12.1c-1-4.8-8-12.5-12.6-15.6c-1.7-1.2-5.8,0.5-2.2,4.9
	c1.9,2.3,8.7,12.6,2.5,4.2c-2-2-4.1-3.9-6.4-5.6c-3.1-2.3-4.8,0.6-3.5,3.1c1.5,3,7.1,12.4,7,11.7s-6.4-8.5-10-11.7
	c-2.1-2-4.1,2.2-2.1,5.9c2.2,4.3,5.2,8.7,2.1,4.9c-0.3-0.4-2.3-1.7-5.3-4.1c-1-0.9-5.3-0.7-3,3.6c0.6,1.1,3.8,3.9,5,5.9
	c2.4,3.8,1.8,5.5,1,6c-1.3,0.7-5.9-6-14.7-6.5c0,0,2.5,9,3.8,10.4S333.5,342.7,336.7,343.6z"/>
<path class="st2" d="M336.7,343.6c1.9,0.5,2.6-1.2,4.3-1.9c1.1-0.4,3.2-0.4,4.2-1.1s1.7-2.6,2.7-3.3c1.2-0.8,3.6-0.4,4.6-1.3
	c0.9-0.7,1.4-2.2,2.2-2.8c0.5-0.4,2.7-0.5,3.2-0.7c2.7-1,4.9-3.4,3-12.1c-1-4.8-8-12.5-12.6-15.6c-1.7-1.2-5.8,0.5-2.2,4.9
	c1.9,2.3,8.7,12.6,2.5,4.2c-2-2-4.1-3.9-6.4-5.6c-3.1-2.3-4.8,0.6-3.5,3.1c1.5,3,7.1,12.4,7,11.7s-6.4-8.5-10-11.7
	c-2.1-2-4.1,2.2-2.1,5.9c2.2,4.3,5.2,8.7,2.1,4.9c-0.3-0.4-2.3-1.7-5.3-4.1c-1-0.9-5.3-0.7-3,3.6c0.6,1.1,3.8,3.9,5,5.9
	c2.4,3.8,1.8,5.5,1,6c-1.3,0.7-5.9-6-14.7-6.5c0,0,2.5,9,3.8,10.4S333.5,342.7,336.7,343.6z"/>
<path class="st4" d="M346.5,273.3c0.1-2.3,0.9-3.3,2.5-2.8c0.6,0.5,1.4,5.9-1.6,4.8C346.9,275,346.5,273.9,346.5,273.3z"/>
<path class="st2" d="M346.5,273.3c0.1-2.3,0.9-3.3,2.5-2.8c0.6,0.5,1.4,5.9-1.6,4.8C346.9,275,346.5,273.9,346.5,273.3z"/>
<path class="st2" d="M330.3,271.9c0-3.3,2.4-4.2,2.6-1.2c0.2,2.4-0.3,3.4-1.6,3.6C330.5,274.5,330.3,272.4,330.3,271.9z"/>
<path class="st6" d="M338.2,275c4.9-0.4,3.5,5.3-0.8,5.4C336.1,280.4,332.1,275.5,338.2,275z"/>
<path class="st2" d="M338.2,275c4.9-0.4,3.5,5.3-0.8,5.4C336.1,280.4,332.1,275.5,338.2,275z"/>
<path class="st2" d="M370.3,254.3c-1.7,0.6-11.4,5.4-10.4,7.6c0.3,0.6,0.7,1.1,1.2,1.5"/>
<path class="st2" d="M326,262.7c1.5-3.7-0.3-5.4-4.4-6.9l-0.2-0.1"/>
<path class="st7" d="M358.7,301.3c-0.2,3.4,1.6,11.8-2.6,13.1c-5.3,1.7-4.8-8.3-5.4-12c-0.1-0.7,7.6-0.4,7.7-0.4L358.7,301.3z"/>
<path class="st2" d="M358.7,301.3c-0.2,3.4,1.6,11.8-2.6,13.1c-5.3,1.7-4.8-8.3-5.4-12"/>
<path class="st2" d="M330.5,295.5c-10.5,11.7-2.3,14,0.1,11.5c0.7-0.7,4.3-5,4.8-5"/>
<path class="st2" d="M331.2,284.8c3.6,1.5,6.8-1.2,6.8-0.8c0.3,1.2,4.2,2.8,6.3,2.1"/>
<path class="st2" d="M336.7,323.1c0.7,1.5,2.3,3.6,2.8,4.7c0.7,1,1.4,2,2,3.1"/>
<path class="st2" d="M344.7,321.5c1.3,1.9,2.4,4,3.2,6.1"/>
<path class="st2" d="M350.7,316.6c1.2,2.6,2.2,4.1,3,6.7c0,0.2,0.4,0.8,0.4,0.8"/>
<path class="st6" d="M334.7,285.1c1.2,2.3-1.2,5.9,3.4,6.9c2.8,0.6,4.2-2.4,4.5-4.6c0.2-1.4-0.6-0.5-2.2-1.4
	c-1.3-0.7-1.4-0.3-2.6-1.6C337.4,283.9,335.3,286.2,334.7,285.1z"/>
<path class="st2" d="M334.7,285.1c1.2,2.3-1.2,5.9,3.4,6.9c2.8,0.6,4.2-2.4,4.5-4.6c0.2-1.4-0.6-0.5-2.2-1.4
	c-1.3-0.7-1.4-0.3-2.6-1.6C337.4,283.9,335.3,286.2,334.7,285.1z"/>
<path class="st2" d="M231.9,205.2c11.7,6.4,27.8,8.1,36.6,5.2"/>
<path class="st2" d="M232.5,202.7c11.5,6.3,27.3,7.9,35.9,5.1"/>
<path class="st2" d="M119.8,324.2c2,8.6,15.4,14.4,21.6,21.2c7,7.7,9.8,9,20,11.2c2,0.4,6.7,1.1,8.5,0"/>
<path class="st8" d="M139,347.1c-8.5-4.4-9.1-14.2,1.9-10.5c6.5,2.2,12.6,13.4,1.3,12C141.1,348.2,140,347.7,139,347.1z"/>
<path class="st2" d="M139,347.1c-8.5-4.4-9.1-14.2,1.9-10.5c6.5,2.2,12.6,13.4,1.3,12C141.1,348.2,140,347.7,139,347.1z"/>
<path class="st2" d="M258.9,155c3.2,4.8,11,3.2,12.2-3.5c0.3-1.6-0.3-4.6-1.7-5.5"/>
<path class="st2" d="M262.2,150.6c-0.5-2.2,0.4-2.6,2.3-2.6"/>
<path class="st9" d="M183.5,99.8V83.2c-0.5-5.8,2.8-9.3,9.9-9.3h17.3"/>
<path class="st9" d="M183.5,206.4v16.5c-0.5,5.8,2.8,9.3,9.9,9.3h17.3"/>
<path class="st9" d="M316,206.4v16.5c0.5,5.8-2.8,9.3-9.9,9.3h-17.3"/>
<path class="st9" d="M316,99.8V83.2c0.5-5.8-2.8-9.3-9.9-9.3h-17.3"/>
<path class="st9" d="M321.3,255.6v-4.7c-0.1-1.6,0.8-2.6,2.8-2.6h4.9"/>
<path class="st9" d="M321.3,286v4.7c-0.1,1.6,0.8,2.6,2.8,2.6h4.9"/>
<path class="st9" d="M359,286v4.7c0.1,1.6-0.8,2.6-2.8,2.6h-4.9"/>
<path class="st9" d="M359,255.6v-4.7c0.1-1.6-0.8-2.6-2.8-2.6h-4.9"/>
</svg>
