<?xml version="1.0" encoding="utf-8"?>
<!-- Generator: Adobe Illustrator 26.3.1, SVG Export Plug-In . SVG Version: 6.00 Build 0)  -->
<svg version="1.1" id="Layer_1" xmlns="http://www.w3.org/2000/svg" xmlns:xlink="http://www.w3.org/1999/xlink" x="0px" y="0px"
	 viewBox="0 0 450 450" style="enable-background:new 0 0 450 450;" xml:space="preserve">
<style type="text/css">
	.st0{fill-rule:evenodd;clip-rule:evenodd;fill:#CC9933;}
	.st1{fill:none;stroke:#000000;stroke-width:2.83;stroke-linecap:round;stroke-linejoin:round;}
	.st2{fill-rule:evenodd;clip-rule:evenodd;fill:#9999FF;}
	.st3{fill-rule:evenodd;clip-rule:evenodd;fill:#FEFEFE;}
	.st4{fill-rule:evenodd;clip-rule:evenodd;fill:#FAC384;}
	.st5{fill-rule:evenodd;clip-rule:evenodd;fill:#FF99CC;}
	.st6{fill-rule:evenodd;clip-rule:evenodd;}
	.st7{fill:none;stroke:#000000;stroke-width:3.4;stroke-linecap:round;stroke-linejoin:round;}
	.st8{fill-rule:evenodd;clip-rule:evenodd;fill:#F58634;}
	.st9{fill-rule:evenodd;clip-rule:evenodd;fill:#FFC4E2;}
	.st10{fill-rule:evenodd;clip-rule:evenodd;fill:#373435;}
	.st11{fill-rule:evenodd;clip-rule:evenodd;fill:#ED3237;}
	.st12{fill:none;stroke:#FEFEFE;stroke-width:2.83;stroke-linecap:round;stroke-linejoin:round;}
</style>
<path class="st0" d="M325.2,343.1c7.1-2.7,44.9,13,41.8-26.2c-1.8-22.9-45.8-21.2-46.2-20.1c-1.9,5.4-9.7,43.8-2.2,45.5
	C321,342.8,323.1,343.9,325.2,343.1z"/>
<path class="st1" d="M325.2,343.1c7.1-2.7,44.9,13,41.8-26.2c-1.8-22.9-45.8-21.2-46.2-20.1c-1.9,5.4-9.7,43.8-2.2,45.5
	C321,342.8,323.1,343.9,325.2,343.1z"/>
<path class="st2" d="M252.7,192.4c3.2,4.7,4.6,9.7,7.4,11.7c9.8,6.7,21.2,1.9,28.2-4c4-3.4,4.5-9.3,7.5-8.2
	c11.5,4.1,57.6,14.9,63.3,26.4c7.2,14.6,10.3,74.7-1,103c-5.4,13.6-16.8,15-31.6,7c-3.7-2-2.2,5.8-2.2,11.5
	c0,16.4-7.7,21.2-9.5,35.4c-0.5,3.8-5.2,0.1-13.2,0.3c-8.2,0.2-27.2-1.2-37.9-1.2c-8.2,0-73.8-0.3-74.5-2.4
	c-0.3,0-24.7-64.7-28.3-72.6c-1.4-3.2,0-8.7,1.6-11.5c15-11.1,18.1-59.1,36.3-78.8C204.9,202.3,241.9,196.9,252.7,192.4"/>
<path class="st3" d="M213.6,326.6c1.5,18.9-10.9,27.3-15.8,29.4c-0.5,0.2,0.1,7.1-10.9,7.6c-6.7,0.3-26.9-10.1-28-17.7
	c-1.4-9.6,3.4-10.9,10.8-16c6.6-4.6,31.3-6.9,39.7-4.9C210.2,325.2,213.5,325.9,213.6,326.6z"/>
<path class="st1" d="M213.6,326.6c1.5,18.9-10.9,27.3-15.8,29.4c-0.5,0.2,0.1,7.1-10.9,7.6c-6.7,0.3-26.9-10.1-28-17.7
	c-1.4-9.6,3.4-10.9,10.8-16c6.6-4.6,31.3-6.9,39.7-4.9C210.2,325.2,213.5,325.9,213.6,326.6z"/>
<path class="st1" d="M360.4,400.7c-12.4-25.9-102.6-32.3-165.7-26.8c-16.3,1.9-102.3,16-111.9,22.5"/>
<path class="st4" d="M216.9,137.4c-2.9,15.9,1.3,27.2,7.8,33.4c9.9,9.4,24.6,8.9,25,9.9c1.8,5.9,5.3,15.8,6.7,19.8
	c5.2,14.4,41.7,4.7,36.3-13.1c-5.3-17.5-13.8-53.8-11.9-53.6c7,0.5,10.6-6,8.2-12.2c-2.9-7.6-9.7-6.9-9.5-8.3
	c7.1-50.4-41.2-51.4-53-35.7c-4.1,5.4-7.7,17.6-5.5,38C221.8,123.7,217.8,133,216.9,137.4z"/>
<path class="st1" d="M216.9,137.4c-2.9,15.9,1.3,27.2,7.8,33.4c9.9,9.4,24.6,8.9,25,9.9c1.8,5.9,5.3,15.8,6.7,19.8
	c5.2,14.4,41.7,4.7,36.3-13.1c-5.3-17.5-13.8-53.8-11.9-53.6c7,0.5,10.6-6,8.2-12.2c-2.9-7.6-9.7-6.9-9.5-8.3
	c7.1-50.4-41.2-51.4-53-35.7c-4.1,5.4-7.7,17.6-5.5,38C221.8,123.7,217.8,133,216.9,137.4z"/>
<path class="st1" d="M246.6,179.9c1.8,0.4,9.8,2.3,20-5.1c0.2-0.1,0.4-0.2,0.7-0.3"/>
<path class="st5" d="M267.8,147.2c-2.6-3.9-6.8-9.1-11.5-4.3c-2,2.1,1,12.4,3.4,11.4c3-1.4,6.1-3.3,7.6-6.2
	C267.4,148,267.9,147.4,267.8,147.2"/>
<path class="st1" d="M268.7,147.9c-2.3-2.2-9.6-11.7-12.8-4.7c-1.5,3.2,1.2,6.6,1.3,7.4"/>
<path class="st1" d="M250.6,159.5c6-0.5,17-9.3,20.3-14.3c0.2-0.3,0.4-0.4,0.4-0.7"/>
<path class="st4" d="M194.6,255c-0.7,3.8,2.1,3.9,2.1,9.7c0,4.2-2.1,3.7-1.6,11.4c0.3,6.1,4.6,7.9,3.8,18.8
	c-0.3,4.2,4.1,4.7,4.1,0.4c0-10.5,0.8-8.6-2.9-18.3c-2.1-5.5,2.4-8.2-0.1-17.5c-0.6-2.3-2.4-2.9-4.4-5.3
	C195,253.6,194.6,255.4,194.6,255z"/>
<path class="st1" d="M194.6,255c-0.7,3.8,2.1,3.9,2.1,9.7c0,4.2-2.1,3.7-1.6,11.4c0.3,6.1,4.6,7.9,3.8,18.8
	c-0.3,4.2,4.1,4.7,4.1,0.4c0-10.5,0.8-8.6-2.9-18.3c-2.1-5.5,2.4-8.2-0.1-17.5c-0.6-2.3-2.4-2.9-4.4-5.3
	C195,253.6,194.6,255.4,194.6,255z"/>
<path class="st4" d="M198.2,251.3c-1.6,5.2,1.1,6.5-0.3,14.9c-1,6.1-2.9,4.7-4.3,16.1c-1.1,9,2.6,13.3-0.8,28.9
	c-1.3,6,2.9,8.4,3.9,2c2.5-15.3,2.8-12.3,1.5-27.9c-0.7-8.7,4.3-11.1,4.1-25.7c-0.1-3.6-1.6-5.1-3.1-9.4
	C198.8,249.3,198,251.7,198.2,251.3z"/>
<path class="st1" d="M198.2,251.3c-1.6,5.2,1.1,6.5-0.3,14.9c-1,6.1-2.9,4.7-4.3,16.1c-1.1,9,2.6,13.3-0.8,28.9
	c-1.3,6,2.9,8.4,3.9,2c2.5-15.3,2.8-12.3,1.5-27.9c-0.7-8.7,4.3-11.1,4.1-25.7c-0.1-3.6-1.6-5.1-3.1-9.4
	C198.8,249.3,198,251.7,198.2,251.3z"/>
<path class="st1" d="M246.1,127.9c-4.1-2.2-8.5-5.5-12-0.3c-0.7,1.1-0.9,2.5-1.3,3.7"/>
<path class="st6" d="M249.1,117c0.2,0.6,0.6,0.6,0.8-1.9c0.1-1.2,0.4-5.3-0.1-4.9S248.7,116.2,249.1,117z"/>
<path class="st1" d="M249.1,117c0.2,0.6,0.6,0.6,0.8-1.9c0.1-1.2,0.4-5.3-0.1-4.9S248.7,116.2,249.1,117z"/>
<path class="st6" d="M230.5,119.1c-0.2,0.6-0.6,0.6-0.9-1.9c-0.1-1.2-0.6-5.3,0-4.9S230.9,118.2,230.5,119.1z"/>
<path class="st1" d="M230.5,119.1c-0.2,0.6-0.6,0.6-0.9-1.9c-0.1-1.2-0.6-5.3,0-4.9S230.9,118.2,230.5,119.1z"/>
<path class="st7" d="M250.7,93.1c1.7,0,9.1,3,9.6,3.7"/>
<path class="st7" d="M228.9,95.2c-1.7,0-9.1,3-9.6,3.7"/>
<path class="st1" d="M279,121.8c-0.7,1.9-1.2,6.2,1.8,5.9"/>
<path class="st6" d="M251,64.7c1.2,1.6-1,8.2-1.3,13.1c-0.2,3.2-0.1,5.6,1.9,6.4c3.4,1.4,17.9,4.8,30.2,14.4c1,0.8-0.8,8.8,0.2,9.1
	c5.8,1.5,8.2-3.2,8.8-3.9c9.6-37.2-28.1-71.3-64.4-45.7c-16.8,11.8-15.4,31.5-14.7,33.2c1.2,2.7,5.1,3,6.1,2
	c5.4-6.1,19.9-7.1,21.8-10c1.8-2.8,2.9-5.8,4.4-8.6C246.1,70.8,248.2,65.6,251,64.7z"/>
<path class="st1" d="M251,64.7c1.2,1.6-1,8.2-1.3,13.1c-0.2,3.2-0.1,5.6,1.9,6.4c3.4,1.4,17.9,4.8,30.2,14.4c1,0.8-0.8,8.8,0.2,9.1
	c5.8,1.5,8.2-3.2,8.8-3.9c9.6-37.2-28.1-71.3-64.4-45.7c-16.8,11.8-15.4,31.5-14.7,33.2c1.2,2.7,5.1,3,6.1,2
	c5.4-6.1,19.9-7.1,21.8-10c1.8-2.8,2.9-5.8,4.4-8.6C246.1,70.8,248.2,65.6,251,64.7z"/>
<path class="st1" d="M250.7,193.4c-10.8,4.6-45.8,8.9-52,15.6c-18.2,19.7-21.3,67.7-36.3,78.8"/>
<path class="st1" d="M294.1,189.5c15.2,8.1,63.2,14.1,68.2,32.8c4.3,16.4,4.9,97.1-9.1,105.7c-18.6,11.5-28.2,0.3-48.9-19.1
	c-5.2-4.9-21.1-19.5-32.9-31.4c-3-3-14.9-10.5-14.4-16.1"/>
<path class="st1" d="M270.8,232.8c4.3-0.6,11.6,5,17.8,9.1c16.8,11.4,37.7,28.9,44,32.7"/>
<path class="st4" d="M248.1,226.1c-1.8-0.7-2.5-3.9-4.1-5.8c-3.9-4.8-6.9-8.6-17.8-12.7c-3.8-1.4-5.6,1.4-9,3.4
	c-2.5,1.5-7.7,4-3.2,6.6c3.6,2,9.6-3,10.9-1.3s14.4,10.8,16.8,11.7c1.5,0.5,5.1,1,5.9-0.7C247.9,226.9,248,226.5,248.1,226.1z"/>
<path class="st1" d="M248.1,226.1c-1.8-0.7-2.5-3.9-4.1-5.8c-3.9-4.8-6.9-8.6-17.8-12.7c-3.8-1.4-5.6,1.4-9,3.4
	c-2.5,1.5-7.7,4-3.2,6.6c3.6,2,9.6-3,10.9-1.3s14.4,10.8,16.8,11.7c1.5,0.5,5.1,1,5.9-0.7C247.9,226.9,248,226.5,248.1,226.1z"/>
<path class="st8" d="M196.2,268.4c-1.4,2.4-5.9,2.4-3.1-2.9l37.1-74.1c1.9-4.3,6.2-2.2,5.5,1.4L196.2,268.4z"/>
<path class="st1" d="M196.2,268.4c-1.4,2.4-5.9,2.4-3.1-2.9l37.1-74.1c1.9-4.3,6.2-2.2,5.5,1.4L196.2,268.4z"/>
<path class="st3" d="M206.2,317c-9.2-4.4-38.7-7-49.4-2.3c-8.6,3.8-25.3,11.6-8.4,18.4C173.3,343.1,234.4,330.7,206.2,317z"/>
<path class="st1" d="M206.2,317c-9.2-4.4-38.7-7-49.4-2.3c-8.6,3.8-25.3,11.6-8.4,18.4C173.3,343.1,234.4,330.7,206.2,317z"/>
<path class="st8" d="M185.7,258.5c-1.8,2.1-0.2,6.4,3.8,1.9l56.8-60.4c3.4-3.3-0.1-6.6-3.2-4.6L185.7,258.5z"/>
<path class="st1" d="M185.7,258.5c-1.8,2.1-0.2,6.4,3.8,1.9l56.8-60.4c3.4-3.3-0.1-6.6-3.2-4.6L185.7,258.5z"/>
<path class="st9" d="M98.4,275.3l66.3,13.6c5.4,1.1,10.7,6.8,11.9,12.6l17.9,83.8c1.2,5.8-2.2,9.7-7.6,8.6l-66.3-13.6
	c-5.3-1.1-10.7-6.8-11.9-12.6l-17.9-83.8C89.6,278.1,93.1,274.2,98.4,275.3z"/>
<path class="st1" d="M98.4,275.3l66.3,13.6c5.4,1.1,10.7,6.8,11.9,12.6l17.9,83.8c1.2,5.8-2.2,9.7-7.6,8.6l-66.3-13.6
	c-5.3-1.1-10.7-6.8-11.9-12.6l-17.9-83.8C89.6,278.1,93.1,274.2,98.4,275.3z"/>
<path class="st4" d="M266.8,232.8c-7.8-4.4-21-10.5-29.7-14.8c-1.2-0.6-7.1-2.2-10.5-1.8c-1.4,0.2-13.8,2.9-15,4
	c-2.1,2.4-3.9,5.1-5.1,8c-0.4,1,0.3,2,2.9,2.4c1.6,0.2,3.1-2.6,3.6-2.9c1.8-1.3,8.2-2.9,8.2-2.6c0,0.1,1.2-0.1,1.1,0
	c-2.2,1.1-4.5,2.5-6.2,7.6c-0.7,2.1-2.8,3-3.8,5.5c-0.6,1.5-0.6,3.7-0.9,5.3c-0.5,2-0.6,4.1-0.2,6.1c0.9,3.8,3.4,1.9,10.4,6.9
	c1.7,1.3,4,1.4,5.8,0.2c2.8-1.9,1.9-3.1,2.8-2.9c2.1,0.3,23.4,7.5,24.2,7.1C261.6,263,273.1,236.4,266.8,232.8z"/>
<path class="st1" d="M266.8,232.8c-7.8-4.4-21-10.5-29.7-14.8c-1.2-0.6-7.1-2.2-10.5-1.8c-1.4,0.2-13.8,2.9-15,4
	c-2.1,2.4-3.9,5.1-5.1,8c-0.4,1,0.3,2,2.9,2.4c1.6,0.2,3.1-2.6,3.6-2.9c1.8-1.3,8.2-2.9,8.2-2.6c0,0.1,1.2-0.1,1.1,0
	c-2.2,1.1-4.5,2.5-6.2,7.6c-0.7,2.1-2.8,3-3.8,5.5c-0.6,1.5-0.6,3.7-0.9,5.3c-0.5,2-0.6,4.1-0.2,6.1c0.9,3.8,3.4,1.9,10.4,6.9
	c1.7,1.3,4,1.4,5.8,0.2c2.8-1.9,1.9-3.1,2.8-2.9c2.1,0.3,23.4,7.5,24.2,7.1C261.6,263,273.1,236.4,266.8,232.8z"/>
<path class="st1" d="M230.2,253.7c-0.1-0.1-9.1-3.4-9.3-3.4"/>
<path class="st1" d="M223.9,232c-1.7,0.2-6.2,0.1-8.1,2.3"/>
<path class="st1" d="M220.1,240.2c-2.7,1.1-7.6,1.7-8.9,4.8c-0.2,0.8-0.3,1.6-0.2,2.5"/>
<path class="st1" d="M220.4,226.1c2.1-2,6.3-1.6,8.9-0.9c0.2,0,0.1,0,0.3,0"/>
<path class="st1" d="M325.4,268.4c0.5-5.9-0.2-12.1,0.2-19.2"/>
<path class="st1" d="M253.8,206c1.8,4,5.3,6.9,9.5,8c9.1,2,20,1.7,31.9-11.1"/>
<path class="st1" d="M324.8,327.6c-3.5,10.1,0.4,10.8-3.2,26c-1.5,6.3-3.7,3.2-2.5,15c0.4,4.1-1.8,8.1-2.9,9.8"/>
<path class="st4" d="M99.2,324.4l-4.1-20.2c-2.5-0.3-3.5,0.7-3.7,3.6s0.8,7.1,0.3,10.7c-0.6,4.2-1,2.4-1,11.3c0,6.1,4,2.6,2.6,8.7
	c-1,4.6,3.5,2.5,2.6,7.2c-0.5,2.4,2.3,3.4,2.8,5.3s1.2,2.8,4.6,4.1c5,2,13.5,3.7,16,3.6c6.4-0.2,5.1-2.1,4.4-3.2
	c1.5-0.4,9.4,0.4,5.9-5.6c-0.1-0.2,0.8-0.5,1.2-1.6s0.4-2.6-1.4-4.5c-0.8-0.8,5.8-5.1-11.8-9.7C109.2,331.9,104.7,328.2,99.2,324.4z
	"/>
<path class="st1" d="M99.2,324.4l-4.1-20.2c-2.5-0.3-3.5,0.7-3.7,3.6s0.8,7.1,0.3,10.7c-0.6,4.2-1,2.4-1,11.3c0,6.1,4,2.6,2.6,8.7
	c-1,4.6,3.5,2.5,2.6,7.2c-0.5,2.4,2.3,3.4,2.8,5.3s1.2,2.8,4.6,4.1c5,2,13.5,3.7,16,3.6c6.4-0.2,5.1-2.1,4.4-3.2
	c1.5-0.4,9.4,0.4,5.9-5.6c-0.1-0.2,0.8-0.5,1.2-1.6s0.4-2.6-1.4-4.5c-0.8-0.8,5.8-5.1-11.8-9.7C109.2,331.9,104.7,328.2,99.2,324.4z
	"/>
<path class="st1" d="M125.5,355.3c-7.9-0.3-4.1,0.5-11.8-2.2c-1-0.4-6.5-2.6-7.2-2.6"/>
<path class="st1" d="M129.6,349.6c-8.3-0.1-10.8-0.2-19.1-3.5c-0.1,0-4.6-1.5-4.7-1.5"/>
<path class="st1" d="M129.1,343.8c-5.3,0.2-10-1.6-15.1-2.5c-3.7-0.9-7.2-2-10.8-3.3"/>
<path class="st1" d="M99.9,325c-0.8-0.4-2.9-2.1-3.6-2.2"/>
<line class="st1" x1="339.1" y1="344.8" x2="335" y2="383.1"/>
<path class="st1" d="M325.4,268.4c2.1-0.6,3.7,0.2,5.8,0.8c0.3,0.1,0.7,0.2,1,0.3"/>
<path class="st1" d="M176.4,280.6c8.7,0.3,16.1,7.6,16.6,7.7"/>
<path class="st4" d="M184.1,336.1c2.6-0.3,28.5-4.8,26-8.3l-0.3-0.5c-2.7-8.6-8.4-6.1-10-5.9c-0.5,0,1.2-0.6,1.2-3.4
	c0.2-7.5-14.5-7.8-6.7-24.3c4.4-9.4,15.2-8.5,17-20.1c1.2-7.8-2.4-15.4-6.6-18.2c-0.4-0.2-0.7-0.4-1.1-0.6c-1.3,1.9-2,3.2-1.6,3.8
	c2.8,3.3,5.3,6.1,5.3,13.1c0,10-15.6,9.4-19.6,25.8c-1.5,6.2,0.4,12.2,4.6,16.8c0.6,0.7-2.8-1-3.2,2.5c-0.2,1.5-5.2,0.2-7.6,1.1
	l-1,0.3L184.1,336.1z"/>
<path class="st1" d="M184.1,336.1c2.6-0.3,28.5-4.8,26-8.3l-0.3-0.5c-2.7-8.6-8.4-6.1-10-5.9c-0.5,0,1.2-0.6,1.2-3.4
	c0.2-7.5-14.5-7.8-6.7-24.3c4.4-9.4,15.2-8.5,17-20.1c1.2-7.8-2.4-15.4-6.6-18.2c-0.4-0.2-0.7-0.4-1.1-0.6c-1.3,1.9-2,3.2-1.6,3.8
	c2.8,3.3,5.3,6.1,5.3,13.1c0,10-15.6,9.4-19.6,25.8c-1.5,6.2,0.4,12.2,4.6,16.8c0.6,0.7-2.8-1-3.2,2.5c-0.2,1.5-5.2,0.2-7.6,1.1
	l-1,0.3L184.1,336.1z"/>
<path class="st4" d="M198.7,251.9c-2.9-1.4-5.9-4.8-2.6-5.2c0.1,0,2.5-2,1.5-3.3c-1.2-1.6-7.5-0.9-7.9,3.7s6.8,11.3,8.8,7.7
	C199.8,252.3,199.6,252.3,198.7,251.9z"/>
<path class="st1" d="M198.7,251.9c-2.9-1.4-5.9-4.8-2.6-5.2c0.1,0,2.5-2,1.5-3.3c-1.2-1.6-7.5-0.9-7.9,3.7s6.8,11.3,8.8,7.7
	C199.8,252.3,199.6,252.3,198.7,251.9z"/>
<path class="st1" d="M191.6,313.4c3.7,3.2,5.5,4.4,1.7,7.7c-2.1,1.9-0.9,2.7-0.9,3.6"/>
<path class="st1" d="M204.3,321.4c-2.8-0.8-5.5,0.4-5.5,3.7c0,5.5-5.2,2.8-4.3,7.3c0.1,0.5,0.6,0.6,0.6,0.9"/>
<path class="st1" d="M201.8,332c2.2-3.2-0.6-5.9,3.3-6.3c1.1-0.1,2.4,0,2.8-1"/>
<path class="st1" d="M182.6,324.9c2.1-0.1,4.2-1.1,5.3,0.8c0.8,1.4,2.1,1.9,3.3,0.7c2.8-2.8,6.2-0.4,7-0.4"/>
<path class="st1" d="M183.7,330.5c3.9-0.9,2.1,2.2,6.3,1.6c1.3-0.2,1.2-1.3,4-0.9"/>
<path class="st1" d="M190,316.2c-2.3,3.2-1.7,1.5-1.6,5.2c0,0.1-1.4,1.4-0.9,2.8"/>
<path class="st1" d="M209.4,305.9c4.1-1.3,33.2,0.4,37.6,1.8c2.2,0.7,12.4,2.5,13.7,3.6"/>
<path class="st1" d="M226.6,300.6c11,0.3,22.8,0.2,34.5,3"/>
<path class="st10" d="M100.7,287.1l7.3,1.6c1.8,0.6,3.2,2,3.6,3.9l1.8,9.1c0.4,1.8-0.7,2.9-2.3,2.6l-7.3-1.6c-1.8-0.6-3.2-2-3.6-3.9
	l-1.8-9.1C98.1,288,99.1,286.8,100.7,287.1z"/>
<path class="st1" d="M100.7,287.1l7.3,1.6c1.8,0.6,3.2,2,3.6,3.9l1.8,9.1c0.4,1.8-0.7,2.9-2.3,2.6l-7.3-1.6c-1.8-0.6-3.2-2-3.6-3.9
	l-1.8-9.1C98.1,288,99.1,286.8,100.7,287.1z"/>
<path class="st3" d="M145.9,241.4c1.5,3.1,2.7,12.2,4,16.4c2.9,0,5.3-15.1,16.8-18c23.2-5.9,47.8-18.6,36.9-46.9
	c-9.2-23.6-58.6-25.8-78-3.8c-18.7,21.2-11.9,40.6,12.4,51.1C140,241,145.4,240.4,145.9,241.4z"/>
<path class="st1" d="M145.9,241.4c1.5,3.1,2.7,12.2,4,16.4c2.9,0,5.3-15.1,16.8-18c23.2-5.9,47.8-18.6,36.9-46.9
	c-9.2-23.6-58.6-25.8-78-3.8c-18.7,21.2-11.9,40.6,12.4,51.1C140,241,145.4,240.4,145.9,241.4z"/>
<path class="st1" d="M259.5,386.2c0-18.2,3.3-22.7,6.4-37.8c1.3-6.4-7.1-11.2,8-13.4c7.3-1.1,12.6,1.1,9.9,10.2
	c-0.2,0.8,2.6,11.9,4.5,20.1s1.6,20,1.5,26.8c-0.1,5.8-1.6,4.1-6.4,5.6c-4.7,1.5-23.8,1.6-23.8-4.8L259.5,386.2z"/>
<path class="st6" d="M263,360.6c-1.1,6.1-2.4,11.2-3.1,17.5c-0.4,3.3-2.5,14.4,0.8,16.7c5.7,3.9,5.3,2.9,12.4,2.9
	c3.2,0,15.9-0.2,16.1-5.2c0.1-3.7,0-31.2-2.5-32c-0.2,0.1-0.4,0.1-0.6,0.1C279.8,357.9,266.7,358.3,263,360.6z"/>
<path class="st1" d="M263,360.6c-1.1,6.1-2.4,11.2-3.1,17.5c-0.4,3.3-2.5,14.4,0.8,16.7c5.7,3.9,5.3,2.9,12.4,2.9
	c3.2,0,15.9-0.2,16.1-5.2c0.1-3.7,0-31.2-2.5-32c-0.2,0.1-0.4,0.1-0.6,0.1C279.8,357.9,266.7,358.3,263,360.6z"/>
<path class="st11" d="M266.2,345.6c3.5,1.5,17.5,2.2,18.2-0.4c0.5-1.8,3.5-8.3,1.8-9.5c-4-2.6-10.4-3-15.3-2.5
	c-2.1,0.2-6.9,1.6-6.9,3.9C264.1,338.4,265.5,345.3,266.2,345.6z"/>
<path class="st1" d="M266.2,345.6c3.5,1.5,17.5,2.2,18.2-0.4c0.5-1.8,3.5-8.3,1.8-9.5c-4-2.6-10.4-3-15.3-2.5
	c-2.1,0.2-6.9,1.6-6.9,3.9C264.1,338.4,265.5,345.3,266.2,345.6z"/>
<path class="st1" d="M264.5,336c2.3,2,10.5,2,13.7,1.9"/>
<path class="st12" d="M281.5,363.9c-4.3,0.4-12,0.6-15.8-1.7"/>
<path class="st12" d="M263.9,372.6c-0.4,3.1-1.3,9.1-1.3,12.4"/>
<path class="st12" d="M265.1,362c0,0.4-0.4,3.4-0.4,3.4"/>
<path class="st1" d="M199.8,355.1c-1.6,0.7-3.3,1.3-5,1.7l-1.7,0.3"/>
<path class="st1" d="M142.2,289l18.5,4c9.3,2.5,10.2,6.8,11.2,10.4l5,23"/>
<path class="st1" d="M90.6,282c-0.3-3.6,4.3-2.9,6.3-2.2l15,3.3"/>
<path class="st1" d="M146.3,206.8c1.3,0.1,2.3,1.2,2.2,2.5s-1.2,2.3-2.5,2.2c-1.3-0.1-2.3-1.2-2.2-2.5
	C143.9,207.7,145,206.7,146.3,206.8C146.3,206.8,146.3,206.8,146.3,206.8z"/>
<path class="st1" d="M159.8,205.4c1.3,0.1,2.3,1.2,2.2,2.5c-0.1,1.3-1.2,2.3-2.5,2.2c-1.3-0.1-2.3-1.2-2.2-2.5
	C157.4,206.3,158.5,205.3,159.8,205.4z"/>
<path class="st1" d="M173.3,204c1.3,0.1,2.3,1.2,2.2,2.5c-0.1,1.3-1.2,2.3-2.5,2.2c-1.3-0.1-2.3-1.2-2.2-2.5c0,0,0,0,0,0
	C170.9,204.9,172,203.9,173.3,204z"/>
</svg>
